<ttFont>
          <CharString index="0">
            -94 callgsubr
            233 callsubr
            -102 callgsubr
            -181 -21 callgsubr
            64 callsubr
            325 rlineto
            639 hlineto
            109 -326 -180 -68 callgsubr
            500 455 callsubr
            19 -511 1430 rlineto
            -168 hlineto
            -510 -1430 170 callsubr
            421.99000549316406 451.00999450683594 rmoveto
            224.99000549316406 675 56.02000427246094 82 callsubr
            57 -194.99000549316406 -8 callsubr
            -681 rlineto
            -567.9900054931641 hlineto
            endchar
          </CharString>
          <CharString index="1">
            -75 vlineto
            -80.99000549316406 27.020004272460938 -6 59 62 -24 callgsubr
            19.990005493164062 12 45.02000427246094 vhcurveto
            76 -128 675 vlineto
            287 -95 109 -278 -188 -216 -117 -36 -49 callgsubr
            vhcurveto
            45 87 callgsubr
            rlineto
            1 hlineto
            37.99000549316406 65 135.99000549316406 72.00999450683594 159 hhcurveto
            193 53 132 callgsubr
            -203 hvcurveto
            return
          </CharString>
          <CharString index="2">
            87.97999572753906 return
          </CharString>
          <CharString index="3">
            rmoveto
            -6 64 157 -105 callgsubr
            232 hhcurveto
            338 192 218.99000549316406 211.99000549316406 246 -237.02000427246094 103 -202 -4 callgsubr
            hvcurveto
            -215 -40 callgsubr
            -147 214 callgsubr
            175.99000549316406 vvcurveto
            166 110 81 202.02000427246094 116 -14 callgsubr
            -34 -24 28.020004272460938 vhcurveto
            37.99000549316406 -255 rlineto
            133 callgsubr
            hlineto
            13 337 rlineto
            10 -60 -144 63 -184 hhcurveto
            -283 -199 -155 -230.99000549316406 -264.00999450683594 248 -110 169 355 callgsubr
            207 94 callsubr
            161 187 callgsubr
            -180 vvcurveto
            -173 -117 -112 -226 -141 -121 45.02000427246094 46 -48 vhcurveto
            -25 callgsubr
            268.97999572753906 rlineto
            -105 hlineto
            -17 -366 rlineto
            return
          </CharString>
          <CharString index="4">
            30 callsubr
            219 callsubr
            7 vhcurveto
            378 7 298 307.9700012207031 483 vvcurveto
            459 -226 304 -415 -379.99000549316406 -302 -306 -483 vhcurveto
            186.99000549316406 1 rmoveto
            464 194 228 284 300.00999450683594 169 -275 -393.00999450683594 -464 -194 -236 -281 -302 -170 284 392 vhcurveto
            endchar
          </CharString>
          <CharString index="5">
            -99.97999572753906 -3 callgsubr
            -82 -192.99000549316406 rlineto
            -43 -54 -69 -33 -170 hhcurveto
            -350 -158.99000549316406 340.99000549316406 370 421 216.99000549316406 232 278.02000427246094 162 -45 callsubr
            -29 -34 37 hvcurveto
            43.99000549316406 -236.99000549316406 rlineto
            106 hlineto
            17 333.99000549316406 rlineto
            16.020004272460938 -71 -178 48.99000549316406 -183 hhcurveto
            -412 -316.99000549316406 -314 -455.99000549316406 return
          </CharString>
          <CharString index="6">
            377 -5 25 -175 rlineto
            104 452 -104 hlineto
            -25 -169.99000549316406 -377 -6 rlineto
            595.9900054931641 vlineto
            547.9799957275391 -37 callgsubr
            56.02000427246094 -197 rlineto
            97 hlineto
            -28 301 rlineto
            -1013 -88 hlineto
            369 callsubr
            return
          </CharString>
          <CharString index="7">
            -87 callgsubr
            -66 callsubr
            81 -12.990005493164062 -49 11 hvcurveto
            200 callgsubr
            -194.99000549316406 rlineto
            5 callgsubr
            247 callsubr
            291.97999572753906 rlineto
            23 -53 -115 39 -120 hhcurveto
            return
          </CharString>
          <CharString index="8">
            2 -943 rlineto
            -221 -32 -176 -124.99000549316406 -39 vhcurveto
            -50 -16 -46.97999572753906 248 callsubr
            2 1 callsubr
            -85.00999450683594 rcurveline
            12 -7 -93 callsubr
            -44 callsubr
            21 275 callgsubr
            197.02000427246094 17 116 153 339.97999572753906 vvcurveto
            1116 vlineto
            65 callgsubr
            32 rlineto
            -5 hlineto
            return
          </CharString>
          <CharString index="9">
            -64 vlineto
            -459 vmoveto
            -64 -82 -120.02000427246094 -60 -82 hhcurveto
            -123.99000549316406 95 callsubr
            57.02000427246094 163 156 164 109 341.00999450683594 2 hvcurveto
            -363 vlineto
            endchar
          </CharString>
          <CharString index="10">
            rmoveto
            -338 -6 -349 -90.99000549316406 -286 vvcurveto
            -223 -31 callsubr
            -98.97999572753906 182 173 135 121.97000122070312 44.02000427246094 49.99000549316406 vhcurveto
            return
          </CharString>
          <CharString index="11">
            -94 callgsubr
            569 87 vlineto
            -87 callsubr
            return
          </CharString>
          <CharString index="12">
            -199 19.990005493164062 rlineto
            287 callgsubr
            199 22 rlineto
            88 -569 -88 vlineto
            199.99000549316406 7 callgsubr
            return
          </CharString>
          <CharString index="13">
            vlineto
            3.0200042724609375 -1 callsubr
            76 9.990005493164062 93 hhcurveto
            415.00999450683594 206.99000549316406 -223 -445.99000549316406 180 callsubr
            145 callgsubr
            -237 -330.02000427246094 -6 hvcurveto
            -94 -27 callgsubr
            -83.99000549316406 -38 callsubr
            -98 18 rrcurveto
            return
          </CharString>
          <CharString index="14">
            83.99000549316406 return
          </CharString>
          <CharString index="15">
            -2 147 callsubr
            -134 16 rlineto
            37 vlineto
            488 503.00999450683594 145.02000427246094 198 rlineto
            -738.0200042724609 vlineto
            -170 -17 -95 callgsubr
            494 -102 callgsubr
            -160.99000549316406 17 rlineto
            912.0200042724609 vlineto
            81 callsubr
            -37 callsubr
            -478 516 callgsubr
            61 callsubr
            -29 vlineto
            -504.00999450683594 -530 -129 -170 rlineto
            728 vlineto
            175 -37 callsubr
            -494 -87 vlineto
            return
          </CharString>
          <CharString index="16">
            -94 callgsubr
            452 -102 callgsubr
            284 callsubr
            -32 callgsubr
            796 vlineto
            65 84 140.99000549316406 70.99000549316406 117 hhcurveto
            198 34 -114 -238 hvcurveto
            -581 vlineto
            -140.99000549316406 93 callgsubr
            460 453 callsubr
            15.009994506835938 rlineto
            580 vlineto
            328.00999450683594 -62 86 callgsubr
            -265.00999450683594 -153 -190 -99 54 callgsubr
            -89 vhcurveto
            2 51 rlineto
            91 vlineto
            -40 32 rlineto
            -5 hlineto
            -261 214 callsubr
            157 callsubr
            -36 rlineto
            -896.9900054931641 vlineto
            -138 -46 callsubr
            return
          </CharString>
          <CharString index="17">
            60.99000549316406 return
          </CharString>
          <CharString index="18">
            -183 -77 callsubr
            212.00999450683594 251.99000549316406 211 callgsubr
            -70.010009765625 225 callsubr
            -100.989990234375 163 hintmask 0000000000000000
            hintmask 1011101100000000
            215.97999572753906 6 callsubr
            -64 86 callsubr
            24 callgsubr
            -39.02000427246094 -84 callgsubr
            344 callsubr
            40.02000427246094 28 callsubr
            -79.99000549316406 -40.02000427246094 -84 callgsubr
            hintmask 1011010010000000
            127.02000427246094 -806.0099945068359 -97 callsubr
            hintmask 0111010010000000
            -106 callsubr
            hintmask 1011010010000000
            -98 callsubr
          </CharString>
          <CharString index="19">
            456 -23 116.97999572753906 -116.97999572753906 121.97000122070312 483.00999450683594 -4 callgsubr
            78 callgsubr
            88 350 128 -97.989990234375 106 hstemhm
            -81 callgsubr
            182 493 178.99000549316406 559.0099945068359 178.99000549316406 hintmask 1010011110000000
            857.9900054931641 203 rmoveto
            -141 81 138 -23 callgsubr
            378 callsubr
            hhcurveto
            156 165 -1 callgsubr
            hvcurveto
            -33 75 rlineto
            8 callsubr
            -63 -135 410 callgsubr
            -196 -163 146 317.00999450683594 141 callsubr
            -1 115 callgsubr
            9.009994506835938 -51 callgsubr
            vvcurveto
            729 424 callsubr
            1 57 78 vvcurveto
            265 -9 441 callgsubr
            435 callgsubr
            hvcurveto
            hintmask 1001101110000000
            116 -47 -105 51 -186 hhcurveto
            -184.02000427246094 -228.99000549316406 -112 -47 -49 hvcurveto
            43 -85 rlineto
            43 80 144 -30 callgsubr
            157 hhcurveto
            194 41 -74 -205 hvcurveto
            -71 vlineto
            -326 -6 -349 -93 -285 vvcurveto
            -222.99000549316406 162 -97.99000549316406 181 vhcurveto
            hintmask 1010011110000000
            215 140 234 callsubr
            89 63 hvcurveto
            93 475 rmoveto
            285 18 123 99 163 hhcurveto
            182 162 callsubr
            -126 -167.02000427246094 1 hvcurveto
            -30 -2 5 callsubr
            -27 callgsubr
            -29 vhcurveto
            -555.0099945068359 hlineto
            hintmask 0101011110000000
            148 callgsubr
            -394 rmoveto
            -83 -50 -126 -102.02000427246094 -144 hhcurveto
            -124 -97 56.02000427246094 164 81 callsubr
            163.99000549316406 118 329.00999450683594 -61 callgsubr
            hvcurveto
            114 callgsubr
            vlineto
            253 callgsubr
            16 -98 32 -83.99000549316406 vhcurveto
            endchar
          </CharString>
          <CharString index="20">
            -95 callsubr
            81 callgsubr
            return
          </CharString>
          <CharString index="21">
            rmoveto
            44.970001220703125 -22 callgsubr
            177 33 194 129 46.99000549316406 131 callgsubr
            rlinecurve
            25 126 -44 callsubr
            167 227 vvcurveto
            846.9900054931641 vlineto
            194.99000549316406 24 rlineto
            88 -570 -88 vlineto
            205 -24 rlineto
            -892 vlineto
            -306 -5 -113.00999450683594 -37 -116.97999572753906 vhcurveto
            -43 -138 -107.99000549316406 -92 -121.97999572753906 426 callsubr
            return
          </CharString>
          <CharString index="22">
            397 callsubr
            112.5 619.9799957275391 101.50999450683594 588.5000152587891 -53 callsubr
            return
          </CharString>
          <CharString index="23">
            194 callsubr
            -85 callgsubr
            return
          </CharString>
          <CharString index="24">
            rmoveto
            -630.9900054931641 -745.9900054931641 -189 -270 rlineto
            1077 vlineto
            208 22 rlineto
            88 -540 -88 vlineto
            336 callgsubr
            -175.99000549316406 -68 callgsubr
            220 callsubr
            -102 callgsubr
            -198 19 rlineto
            79.00999450683594 vlineto
            650 763.9900054931641 170 249 rlineto
            -1092 vlineto
            -186 -68 callgsubr
            532 -102 callgsubr
            -181 19 rlineto
            476 callgsubr
            169 23 rlineto
            88 -521.0099945068359 -88 vlineto
            187 -23 rlineto
            -60 vlineto
            endchar
          </CharString>
          <CharString index="25">
            -37 -23 12 callgsubr
            -121.99000549316406 -12 callgsubr
            933 144 callsubr
            -64.96002197265625 -65 callsubr
            -16.949996948242188 -65 callsubr
            return
          </CharString>
          <CharString index="26">
            448 1101 105 22 rlineto
            88 -428.00999450683594 -88 vlineto
            186 -22 -281 -746 -70.99000549316406 -195.99000549316406 -66 193.99000549316406 -360 747.0099945068359 211 23 rlineto
            88 -506 -88 vlineto
            180 callgsubr
            -22 531.0099945068359 -1081 rlineto
            -140 -50 -49 -54 -125.99000549316406 hhcurveto
            111 callgsubr
            -121 2 -61 callgsubr
            -7 hvcurveto
            return
          </CharString>
          <CharString index="27">
            -303 385 160 51 callsubr
            -444 -88 vlineto
            144 11 callgsubr
            340 -405.00999450683594 -193 -92 -159.99000549316406 -379 -107.00999450683594 -34 rlinecurve
            -22 callgsubr
            -20.009994506835938 -95 callgsubr
            -57 callgsubr
            vlineto
            166 175 546.9700012207031 133 callsubr
            hhcurveto
            167 -439.99000549316406 hlineto
            -163 -68 callgsubr
            505 -102 callgsubr
            -182.99000549316406 19 rlineto
            439.00999450683594 return
          </CharString>
          <CharString index="28">
            51 callgsubr
            hintmask 11101000
            251 callsubr
            -72 callgsubr
            return
          </CharString>
          <CharString index="29">
            -1 hlineto
            -21 -46 138 callgsubr
            -30 -83 hhcurveto
            -1 hlineto
            -112 -58 callgsubr
            16 229 hvcurveto
            662 363 121 -363 292 -95.00999450683594 vlineto
            -7 -37 -49 callgsubr
            -151.99000549316406 -17 -47 -11 -32 -13 -19 -32 callsubr
            -12.990005493164062 -17 -10.020004272460938 -66 99 callgsubr
            -36 -8 rrcurveto
            -81 81 callsubr
            return
          </CharString>
          <CharString index="30">
            -23 121.97000122070312 -117.97000122070312 -53 callgsubr
            497 -78 callgsubr
            345.00999450683594 100 callgsubr
            return
          </CharString>
          <CharString index="31">
            -280 77 callsubr
            327 345 callgsubr
            304 181 callgsubr
            157 callgsubr
            149.47999572753906 vstem
            948 122.97999572753906 rmoveto
            -100 callsubr
            76 callgsubr
            -61 callgsubr
            -292.97999572753906 158 callgsubr
            -237.02000427246094 275.99000549316406 -40.97999572753906 rrcurveto
            23 -39 36 -76 482 callgsubr
            -55 -35 callsubr
            363 callsubr
            vhcurveto
            -1 hlineto
            -20 239 callsubr
            4.0099945068359375 146 callgsubr
            -65 -45 callsubr
            -46 54 139 -17 callgsubr
            148.99000549316406 68.99000549316406 73.00999450683594 74 rrcurveto
            endchar
          </CharString>
          <CharString index="32">
            727.9799957275391 -36 callgsubr
            -519.9900054931641 768 rmoveto
            -83 634 83 vlineto
            -226 82 callgsubr
            rlineto
            908 vlineto
            -86.02000427246094 15.009994506835938 rlineto
            -44 callsubr
            hlineto
            -115 -88 -121.02000427246094 -41 231 callsubr
            -32 20 -92 rcurveline
            86 18 99 23 84 35 rrcurveto
            -747 vlineto
            -263 114 callgsubr
            rlineto
            return
          </CharString>
          <CharString index="33">
            -90 callsubr
            -6 callgsubr
            57.02000427246094 -36 -90 callsubr
            return
          </CharString>
          <CharString index="34">
            -72 callsubr
            186.00999450683594 252.99000549316406 -28 callsubr
            -106 156 callgsubr
            -205.989990234375 104 hintmask 0000000000000000
            hintmask 0111101100000000
            340.99000549316406 183 callgsubr
            83 -39 callsubr
            0.9799957275390625 hlineto
            84.00999450683594 -38 callgsubr
            64 callgsubr
            -40 -66.99000549316406 -69 hvcurveto
            -723.9900054931641 -1737.009994506836 -55 callsubr
            rlineto
            hintmask 0111010010000000
            36 callsubr
            -101 callsubr
            hintmask 1011010010000000
            215 callgsubr
            hintmask 0111101100000000
            256 callsubr
            endchar
          </CharString>
          <CharString index="35">
            8 -70 callgsubr
            return
          </CharString>
          <CharString index="36">
            53 -12 -81 callgsubr
            -23 callgsubr
            -67 callgsubr
            640.510009765625 105 600.989990234375 78 -78 94 -28 callsubr
            571 168.97999572753906 146 callsubr
            183 hintmask 00000000
            hintmask 01101101
            191 callsubr
            100 callsubr
            vlineto
            156.02000427246094 69 -12 99 hhcurveto
            hintmask 10101101
            475 142 227 239.99000549316406 216 -152 149 -259.00999450683594 -10.020004272460938 hvcurveto
            hintmask 10101110
            199 40 -18 callgsubr
            159 185 vvcurveto
            216 -139 128 -367 vhcurveto
            hintmask 01110101
            -100.99000549316406 -95 -16 -122 hhcurveto
            -256 401 callgsubr
            hintmask 01101101
            256 callsubr
            hintmask 10101110
            344 758 rmoveto
            585.0099945068359 vlineto
            -38 callsubr
            40 -30 callgsubr
            12 100 hhcurveto
            199 callsubr
            87.02000427246094 -98 -190 -201 -112 404 callsubr
            -207 8 callsubr
            -136 -1 4 286 callsubr
            hvcurveto
            -743 vmoveto
            633 vlineto
            -17 callgsubr
            -90 callsubr
            158 262 callsubr
            74 hhcurveto
            hintmask 10101101
            408 callsubr
            109 250 callsubr
            -219 -207 -117 148 callgsubr
            -317.99000549316406 hvcurveto
            hintmask 10101110
            -70 231 callsubr
            2 16 -52 hvcurveto
            endchar
          </CharString>
          <CharString index="37">
            6 callsubr
            -64 39 24 callgsubr
            -39 -84 callgsubr
            344 callsubr
            40 28 callsubr
            -80 -40 -84 callgsubr
            return
          </CharString>
          <CharString index="38">
            -15 callgsubr
            171.010009765625 330 callsubr
            346.99000549316406 156 callgsubr
            vstem
            346.99000549316406 183 callgsubr
            83 -39 callsubr
            156 callsubr
            84 -38 callgsubr
            64 callgsubr
            -40 -66.99000549316406 -69 hvcurveto
            -855.9799957275391 -1737.009994506836 -107 callsubr
          </CharString>
          <CharString index="39">
            543 231 callgsubr
            111 338.97999572753906 107 176.510009765625 101.5 379 307.99000549316406 -96.50001525878906 96.5 hstemhm
            -184.99000549316406 218 callsubr
            537.9799957275391 167 396 322 callsubr
            hintmask 0111010110000000
            640 87 rmoveto
            -87 1114.990005493164 vlineto
            77 350.99000549316406 95 callsubr
            172 callsubr
            317 callgsubr
            -256 -627 127 callgsubr
            635 vlineto
            371 -5 233 callgsubr
            -176 rlineto
            322 callsubr
            452 -103.00999450683594 194 callgsubr
            -169 -371 -5.9799957275390625 rlineto
            598 vlineto
            542.9900054931641 213 callsubr
            rlineto
            hintmask 0111100110000000
            62 435 callsubr
            rlineto
            97 hlineto
            hintmask 1011011110000000
            -35 308 rlineto
            -1380 -85 hlineto
            278 405 callsubr
            -588.9799957275391 -1309 -150 134 callgsubr
            rlineto
            hintmask 0111011110000000
            -87 218 callsubr
            vlineto
            hintmask 1011011110000000
            87 vlineto
            -160 19.990005493164062 144 343 rlineto
            554 -344 hlineto
            hintmask 0111010110000000
            -181.99000549316406 134 callgsubr
            rlineto
            -327 470 rmoveto
            -20 callgsubr
            604 113 263 rlineto
            143 -867 -508.99000549316406 hlineto
            endchar
          </CharString>
          <CharString index="40">
            7 77 callsubr
            327 261 callsubr
            hstem
            -6 callgsubr
            193 479.989990234375 181 callgsubr
            vstem
            1250.979995727539 328.99000549316406 rmoveto
            -102 callsubr
            180 callsubr
            220 -305.00999450683594 395 71 callsubr
            hvcurveto
            23 -40 35 -75 -70 -8 callgsubr
            -35 callsubr
            242 callgsubr
            46.02000427246094 hhcurveto
            0.9799957275390625 75 callgsubr
            118 callsubr
            146 callgsubr
            -65 -45 callsubr
            -46 54 236 -17 callgsubr
            75 71 106 5 49.99000549316406 273 rcurveline
            endchar
          </CharString>
          <CharString index="41">
            84.00999450683594 return
          </CharString>
          <CharString index="42">
            40.96000671386719 return
          </CharString>
          <CharString index="43">
            88 -472.99000549316406 -88 vlineto
            157 -22 464 -626.0099945068359 -189 -86 -268 -560 -111 5 callsubr
            rlinecurve
            113 callsubr
            -20.009994506835938 -95 callgsubr
            210 vlineto
            142 286.97999572753906 706.9900054931641 165 hhcurveto
            152 -600 hlineto
            -172 -68 callgsubr
            513 87 vlineto
            -180 21 rlineto
            599 152 vlineto
            return
          </CharString>
          <CharString index="44">
            -105 callgsubr
            220 callsubr
            -102 callgsubr
            -191 15.009994506835938 rlineto
            1547 vlineto
            -40 28 rlineto
            -1 hlineto
            -301 -36 rlineto
            -75 vlineto
            176 -18 rlineto
            -1444.990005493164 244 callgsubr
            return
          </CharString>
          <CharString index="45">
            -74 callsubr
            -70 hvcurveto
            return
          </CharString>
          <CharString index="46">
            rmoveto
            -809 vlineto
            -179 145 callsubr
            112 callgsubr
            132 vhcurveto
            2 hlineto
            58 callsubr
            1 324 callsubr
            437 callsubr
            59 45 -23 callsubr
            77 rcurveline
            -78 callsubr
            vlineto
            return
          </CharString>
          <CharString index="47">
            -45 79 callsubr
            hstemhm
            220.99000549316406 365 callgsubr
            620.0200042724609 54 callsubr
            hintmask 11101100
            605.9799957275391 -23 rmoveto
            351 226 281.97999572753906 351 392.99000549316406 -220 165 -228 -171.99000549316406 -126.02000427246094 -90 -74 475 callgsubr
            hintmask 11011100
            -42 callsubr
            hintmask 11101100
            -19.979995727539062 56 -4 callgsubr
            -13 -30 callgsubr
            hhcurveto
            -221 945.9900054931641 rmoveto
            52 48 106 201 callsubr
            128 hhcurveto
            95 callgsubr
            158 -134 -326.97999572753906 -44 callsubr
            hvcurveto
            -349 -5 -166 -158 -219 hhcurveto
            -113 -97 36.99000549316406 33 -35 callsubr
            hvcurveto
            779 vlineto
            endchar
          </CharString>
          <CharString index="48">
            610 0 213 callgsubr
            358 callsubr
            392.99000549316406 1037 110 hstemhm
            278.99000549316406 -52 callgsubr
            1026.009994506836 137 callsubr
            hintmask 10111000
            1087 116.97999572753906 rmoveto
            -116.97999572753906 665.9900054931641 vlineto
            hintmask 01111000
            56 392.99000549316406 rlineto
            381 callsubr
            hlineto
            hintmask 10111000
            364 callsubr
            -257 -401.02000427246094 -37 callgsubr
            193 129 211 355.97999572753906 5 289.02000427246094 rlinecurve
            417 6 -256 222 -412 hhcurveto
            -355 -333 -181 -469 137 callgsubr
            hvcurveto
            304 callgsubr
            -316 257 -350 178 -99 -412 10 rcurveline
            hintmask 01111000
            286 callsubr
            258.00999450683594 rlineto
            -107.99000549316406 hlineto
            hintmask 10111000
            40.97999572753906 -392.99000549316406 rlineto
            683 116.97999572753906 hlineto
            -169 148 callsubr
            -239 323.99000549316406 324.02000427246094 vvcurveto
            413.99000549316406 214 161.02000427246094 316 303 193 -178.02000427246094 -371 -326 -178 -316 -204.99000549316406 -122 vhcurveto
            endchar
          </CharString>
          <CharString index="49">
            168 32.02000427246094 181 124 131 callgsubr
            vvcurveto
            236.02000427246094 -188.99000549316406 -53 callgsubr
            359 callsubr
            202 callgsubr
            -152 -62 -5 -86.02000427246094 vhcurveto
            17.020004272460938 -303 rlineto
            -45 callsubr
            hlineto
            35 184 rlineto
            46 31 93 39 109 callsubr
            hhcurveto
            184.02000427246094 52 callgsubr
            -75.02000427246094 -196 1 hvcurveto
            305 callgsubr
            1 -187 249 callgsubr
            -171.99000549316406 hhcurveto
            -122 -99 172 callgsubr
            hlineto
            return
          </CharString>
          <CharString index="50">
            6 callgsubr
            117 callgsubr
            -38 callsubr
            hlineto
            83 41 -76 callgsubr
            235 callgsubr
            241 callsubr
            105 callgsubr
            40.02000427246094 -25 callsubr
            -418 -1737.009994506836 51 callgsubr
            return
          </CharString>
          <CharString index="51">
            -62 callsubr
            -1 hlineto
            -81 -39 -68 -69 return
          </CharString>
          <CharString index="52">
            -94 callgsubr
            1109 vlineto
            63 345.99000549316406 -97 31.009994506835938 -104 -256 return
          </CharString>
          <CharString index="53">
            -647.9900054931641 -834.0099945068359 36.99000549316406 -76.97999572753906 rlineto
            907 hlineto
            30 332.97999572753906 -104 -18 callsubr
            -65 -224 -612 134 callgsubr
            130 117 return
          </CharString>
          <CharString index="54">
            99.49000549316406 return
          </CharString>
          <CharString index="55">
            -292 19 rlineto
            1322 vlineto
            394.02000427246094 -11 57 -417.00999450683594 rlineto
            110 hlineto
            -23 521.0099945068359 rlineto
            18 callsubr
            return
          </CharString>
          <CharString index="56">
            -94 callgsubr
            522 246 callsubr
            18 rlineto
            622 780.9900054931641 -621 vlineto
            -170.99000549316406 -68 callgsubr
            508.99000549316406 -102 callgsubr
            -168 19 rlineto
            476 callgsubr
            501 callsubr
            -507.99000549316406 -88 vlineto
            169.99000549316406 -23 rlineto
            -575 -780.9900054931641 576 426 callgsubr
            22 rlineto
            88 -514.9900054931641 -88 vlineto
            168 -23 rlineto
            288 callsubr
          </CharString>
          <CharString index="57">
            -10 0 98 482.99000549316406 -14 callgsubr
            743.0099945068359 -81 callgsubr
            -84.00001525878906 84 -84 99 108 callgsubr
            622 212 callsubr
            hintmask 11001110
            -12 callgsubr
            87.97999572753906 84 callsubr
            326 259.00999450683594 460 callgsubr
            331.02000427246094 224 callsubr
            hvcurveto
            hintmask 11010110
            -179 -45 -58 callgsubr
            -135 388 callsubr
            163 7 callgsubr
            hintmask 11001110
            256 callsubr
            564 594 rmoveto
            -101 -81 2 7 -49 callgsubr
            hvcurveto
            hintmask 11100110
            734 vlineto
            hintmask 11001110
            -1 callsubr
            68 171 callsubr
            98 hhcurveto
            271.02000427246094 129 94 callsubr
            -244 -324.02000427246094 -195.02000427246094 -99 435 callsubr
            hvcurveto
            endchar
          </CharString>
          <CharString index="58">
            -94 callgsubr
            1065 vlineto
            75 381 callgsubr
            -98 17 -115.02000427246094 -320.97999572753906 -582.9900054931641 226 callgsubr
            1305 74 callgsubr
            return
          </CharString>
          <CharString index="59">
            -16 callgsubr
            178 callsubr
            1555.990005493164 vlineto
            -49 callgsubr
            29 rlineto
            -5 hlineto
            -335.02000427246094 -34 rlineto
            -75 vlineto
            213.02000427246094 -19 rlineto
            -406 vlineto
            return
          </CharString>
          <CharString index="60">
            12 128 callsubr
            939.989990234375 128 hstem
            315 callsubr
            165 578.010009765625 -52 callgsubr
            vstem
            320 callsubr
            -74 callgsubr
            459 callgsubr
            87.97999572753906 vlineto
            -152 121 callgsubr
            86 140 70 116 hhcurveto
            202.02000427246094 34 99 callsubr
            -239 hvcurveto
            -580 vlineto
            361 callsubr
            23 callsubr
            459.02000427246094 -102 callgsubr
            -150.02000427246094 14 callgsubr
            220 callgsubr
            289 callsubr
            -5 hlineto
            -302 -35 rlineto
            -75 vlineto
            180.99000549316406 -18 rlineto
            -1445.990005493164 vlineto
            -128 226 callgsubr
            endchar
          </CharString>
          <CharString index="61">
            -71 callgsubr
            rlineto
            return
          </CharString>
          <CharString index="62">
            106.99000549316406 return
          </CharString>
          <CharString index="63">
            -2.9900054931640625 return
          </CharString>
          <CharString index="64">
            297 callsubr
            104 -57 -119 vvcurveto
            -111 -68 -75 -183 -111 -108 46 43 -28 vhcurveto
            -31 157 callsubr
            rlineto
            -110 hlineto
            return
          </CharString>
          <CharString index="65">
            52 callgsubr
            vlineto
            -37 32 rlineto
            -5 hlineto
            -262 214 callsubr
            160 -36 rlineto
            -1385.979995727539 vlineto
            -158 114 callgsubr
            rlineto
            -91.02000427246094 548.9900054931641 91.02000427246094 vlineto
            -227 82 callgsubr
            rlineto
            220 vlineto
            -4 265 callsubr
            rlineto
            return
          </CharString>
          <CharString index="66">
            vhcurveto
            1 hlineto
            -93 callsubr
            -85 callgsubr
            return
          </CharString>
          <CharString index="67">
            -94 callgsubr
            633 -102 callgsubr
            -83 callgsubr
            -227.99000549316406 -19 rlineto
            endchar
          </CharString>
          <CharString index="68">
            -24 callsubr
            190 callgsubr
            hmoveto
            -64 86 callsubr
            -53 64 vhcurveto
            return
          </CharString>
          <CharString index="69">
            0.9900054931640625 return
          </CharString>
          <CharString index="70">
            30.990005493164062 rlineto
            88 return
          </CharString>
          <CharString index="71">
            200 callsubr
            252 217 52 80 -127 111 rcurveline
            -1 hlineto
            -320 -394 rlineto
            return
          </CharString>
          <CharString index="72">
            -20.009994506835938 return
          </CharString>
          <CharString index="73">
            299 callgsubr
            52 -81 261 -227 75 274 callsubr
            1 hlineto
            59 466 callgsubr
            -128 -111 rlineto
            return
          </CharString>
          <CharString index="74">
            189 -12 callsubr
            98.97000122070312 1339.510009765625 -53 callsubr
            return
          </CharString>
          <CharString index="75">
            -20.990005493164062 return
          </CharString>
          <CharString index="76">
            159.99000549316406 return
          </CharString>
          <CharString index="77">
            rmoveto
            -384.99000549316406 303 callsubr
            201 -219.99000549316406 307 hhcurveto
            374 407 callgsubr
            321.97999572753906 471 456 -232 312 -372 -286 403 callgsubr
            -74 -5 -115.02000427246094 hvcurveto
            -12 -293.00999450683594 107 -1 38 164 rlineto
            49.99000549316406 59 99 58.02000427246094 193 hhcurveto
            242 209 -219 -426 16 hvcurveto
            -12 -987 vlineto
            251 callgsubr
            -46.99000549316406 -35 callgsubr
            -19 callgsubr
            -84 vvcurveto
            1000 97.00999450683594 rmoveto
            -421 -10.020004272460938 -191 -170 -239.97999572753906 hhcurveto
            -267.02000427246094 219 callgsubr
            255.02000427246094 225 39 4 36 5 36 hvcurveto
            817.0099945068359 hlineto
            endchar
          </CharString>
          <CharString index="78">
            335.99000549316406 -74 callgsubr
            737 -102 callgsubr
            -52 callsubr
            -268 -19 rlineto
            return
          </CharString>
          <CharString index="79">
            39 callsubr
            169 return
          </CharString>
          <CharString index="80">
            rmoveto
            -432 260.02000427246094 -326.97999572753906 443.99000549316406 274 160 158 callsubr
            5 -53 callgsubr
            vhcurveto
            554 vlineto
            432 callsubr
            390 callsubr
            -53 callgsubr
            -582 -107.99000549316406 vlineto
            284 300 callgsubr
            rlineto
            -466 vlineto
            -57 159 callsubr
            -139 -37 -145 hhcurveto
            -357.99000549316406 -167.02000427246094 352.00999450683594 361 431 240 220 316.00999450683594 193 -4 callsubr
            -46 -23 31.009994506835938 hvcurveto
            45 -237 rlineto
            107 449 callsubr
            -210.99000549316406 hhcurveto
            -427.00999450683594 -340.00999450683594 -287.99000549316406 -514.0099945068359 hvcurveto
            endchar
          </CharString>
          <CharString index="81">
            59.99000549316406 return
          </CharString>
          <CharString index="82">
            -76 callgsubr
            -37 38 callsubr
            return
          </CharString>
          <CharString index="83">
            41 -76 callgsubr
            65 callgsubr
            241 callsubr
            return
          </CharString>
          <CharString index="84">
            -26.009994506835938 return
          </CharString>
          <CharString index="85">
            -130 212 203 121 131 168.97999572753906 -18 callsubr
            0 12 -2 -18 callsubr
            423 callgsubr
            -6 0 11 callsubr
            -2 -12 vhcurveto
            146 callsubr
            -6 -53 -104 -169 hhcurveto
            return
          </CharString>
          <CharString index="86">
            rmoveto
            -6 -44 -7 -58 3 -76.99000549316406 rrcurveto
            -265.00999450683594 11.990005493164062 137 -140.97999572753906 340 callsubr
            hhcurveto
            296 220.02000427246094 324 callgsubr
            350 350.99000549316406 -170 247 -318 -152 -163 -66 -80 -76 hvcurveto
            187 callsubr
            -75 rlineto
            6 callgsubr
            62 130 50 114 hhcurveto
            194 162 -146 -317.00999450683594 8.009994506835938 hvcurveto
            189 callsubr
            -715 vlineto
            714 -95.00999450683594 rmoveto
            -287.97999572753906 -17 -122 -107.00999450683594 -157 hhcurveto
            -186 -63 143 -57 callgsubr
            -2 hvcurveto
            27 1 31 -17 callgsubr
            28 vhcurveto
            543 hlineto
            endchar
          </CharString>
          <CharString index="87">
            0 -67 callgsubr
            return
          </CharString>
          <CharString index="88">
            -182 -158 131 332 5 hvcurveto
            348 118 callsubr
            -52 callgsubr
            146 219 hhcurveto
            104 105 -31 -37 23 hvcurveto
            return
          </CharString>
          <CharString index="89">
            14.009994506835938 return
          </CharString>
          <CharString index="90">
            0 -81 callgsubr
            return
          </CharString>
          <CharString index="91">
            -102 callgsubr
            -187 19 rlineto
            1221 vlineto
            169 -274 733 -1053.979995727539 rlineto
            106 return
          </CharString>
          <CharString index="92">
            -180 -46 callsubr
            return
          </CharString>
          <CharString index="93">
            rmoveto
            -317.99000549316406 106 163 callgsubr
            280 175 93 53 46 -78 callgsubr
            vhcurveto
            -379 vlineto
            318 callgsubr
            -18 -95 callgsubr
            502.99000549316406 -102 callgsubr
            376 callsubr
            19 rlineto
            911.0099945068359 vlineto
            323 callsubr
            51 callsubr
            -488 -88 vlineto
            95 callgsubr
            97 callgsubr
            -431 vlineto
            -29 -54.99000549316406 -98 -53 -147 hhcurveto
            -240 357 callgsubr
            80 311.00999450683594 hvcurveto
            123 399 callgsubr
            -450 466 callsubr
            rlineto
            -194 vlineto
            endchar
          </CharString>
          <CharString index="94">
            449 callgsubr
            -157 -32 callgsubr
            174 vlineto
            111 callsubr
            105 -8 callsubr
            226 321 -504.00999450683594 -142 -17 -95 callgsubr
            366 callgsubr
            455 callsubr
            15.009994506835938 -409 597 rlineto
            return
          </CharString>
          <CharString index="95">
            -15.990005493164062 return
          </CharString>
          <CharString index="96">
            -162 210 200 124 163 176 15 -2 15.009994506835938 -1 -3 callgsubr
            423 callgsubr
            -38 callsubr
            -7 -35 callgsubr
            333 callsubr
            -7 -54 -123.99000549316406 -167 hhcurveto
            -168 489 callgsubr
            return
          </CharString>
          <CharString index="97">
            -551.9900054931641 104 446.99000549316406 43 -43 181 callgsubr
            264 -14 callgsubr
            508.00999450683594 152 -101.010009765625 101 return
          </CharString>
          <CharString index="98">
            -12 callsubr
            98.97000122070312 -82.97999572753906 -67 callgsubr
            return
          </CharString>
          <CharString index="99">
            229.99000549316406 return
          </CharString>
          <CharString index="100">
            -26 callgsubr
            hintmask 10101100
            180 vlineto
            hintmask 11001100
            53 callsubr
            hintmask 10011100
            32 callgsubr
            hintmask 11001100
            -164 99 callgsubr
            rlineto
            endchar
          </CharString>
          <CharString index="101">
            105.99000549316406 return
          </CharString>
          <CharString index="102">
            33 72 callgsubr
            rlineto
            130 callgsubr
            31 92 40 181 callgsubr
            hhcurveto
            194 64 249 callsubr
            -116 -117 -98 -87 -182 -32 callsubr
            298 callsubr
            -11 rlineto
            -111 vlineto
            1 -17 callgsubr
            284 callgsubr
            13 -61 callgsubr
            hhcurveto
            return
          </CharString>
          <CharString index="103">
            89.99000549316406 return
          </CharString>
          <CharString index="104">
            rmoveto
            -32 callsubr
            -75 rlineto
            -17 -90 callsubr
            72.00999450683594 -44 callsubr
            59 hhcurveto
            357 callsubr
            342 callsubr
            163 264 callgsubr
            172.02000427246094 -93 -53 callgsubr
            -230.99000549316406 -106 -121 -42 99 callgsubr
            -29 hvcurveto
            45 326 rlineto
            494 hlineto
            3 109 rlineto
            -610 hlineto
            -48 -482 63 -46 rlineto
            1 callsubr
            24 98 46 129 hhcurveto
            153 201 callsubr
            -70 148 callgsubr
            -153 -157 -101.99000549316406 -211 -33 -66 -17 callgsubr
            11 -49 callgsubr
            hvcurveto
            return
          </CharString>
          <CharString index="105">
            -99 callgsubr
            -338 -530 rmoveto
            280 13 283 callsubr
            323 callsubr
            197 hhcurveto
            216 93 -188.99000549316406 -234 16 hvcurveto
            -655.0099945068359 hlineto
            658 108 callsubr
            rmoveto
            -307 -44 callsubr
            -122 -157 -205 hhcurveto
            -227 -93 208 256 -37 callgsubr
            hvcurveto
            658.9900054931641 hlineto
            endchar
          </CharString>
          <CharString index="106">
            55.99000549316406 return
          </CharString>
          <CharString index="107">
            1397.990005493164 rmoveto
            57.02000427246094 -45 147 callsubr
            63 217 191 64 104 rlinecurve
            -117 97.00999450683594 -310 -410 rlineto
            472 4.0099945068359375 rmoveto
            56 -48 250 callgsubr
            -90 callsubr
            230 195 -1 callsubr
            94 rlinecurve
            return
          </CharString>
          <CharString index="108">
            8.990005493164062 return
          </CharString>
          <CharString index="109">
            rmoveto
            52 47 -53 callgsubr
            78.99000549316406 128 hhcurveto
            183 157 -134.99000549316406 -326 -4 hvcurveto
            -340.00999450683594 252 callsubr
            -163 -159.99000549316406 -221 hhcurveto
            -101.99000549316406 -106 233 callgsubr
            48 -22 hvcurveto
            757 vlineto
            endchar
          </CharString>
          <CharString index="110">
            -509 -17 callsubr
            1326 99 return
          </CharString>
          <CharString index="111">
            -222 -1054 rmoveto
            321 callgsubr
            43 50 111 callsubr
            55 hhcurveto
            254 hlineto
            223 35 -69 138 callgsubr
            -166 -217 -98 -215 471 callsubr
            hlineto
            -252 -74 87 148 97 43.99000549316406 75 56 53.97999572753906 hvcurveto
            endchar
          </CharString>
          <CharString index="112">
            -31.990005493164062 return
          </CharString>
          <CharString index="113">
            1487.990005493164 rmoveto
            return
          </CharString>
          <CharString index="114">
            hhcurveto
            360 224 94 callgsubr
            349 392.99000549316406 -219.02000427246094 165 -228.99000549316406 -159 163 callgsubr
            -74.00999450683594 -68 -22 callgsubr
            hvcurveto
            622 vlineto
            -38 29 rlineto
            -4 hlineto
            -298.97999572753906 -35 rlineto
            -75 vlineto
            return
          </CharString>
          <CharString index="115">
            -53.99000549316406 return
          </CharString>
          <CharString index="116">
            152 -66.99000549316406 vlineto
            -112 -93 -59 -23 callsubr
            -29 hvcurveto
            58 132 callgsubr
            -107.99000549316406 300 callsubr
            163 callgsubr
            hhcurveto
            -0.9900054931640625 485 callgsubr
            79 -111 124 -59 hvcurveto
            return
          </CharString>
          <CharString index="117">
            rmoveto
            -19 41 62 -58 callgsubr
            65.99000549316406 hhcurveto
            208.02000427246094 59 219.99000549316406 130 callsubr
            52 hvcurveto
            return
          </CharString>
          <CharString index="118">
            -9.009994506835938 return
          </CharString>
          <CharString index="119">
            126.00999450683594 return
          </CharString>
          <CharString index="120">
            1404.990005493164 rmoveto
            58 -55.99000549316406 rlineto
            return
          </CharString>
          <CharString index="121">
            703 -10.990005493164062 -40 callgsubr
            -101.99000549316406 52 callgsubr
            1308.490005493164 -53 callsubr
            return
          </CharString>
          <CharString index="122">
            1966.979995727539 rmoveto
            248 -274.97999572753906 rlineto
            155 104 callsubr
            187 callgsubr
            -44 rlineto
            return
          </CharString>
          <CharString index="123">
            hlineto
            55 318 callsubr
            -338 309 rlineto
            -1 hlineto
            -115 -105.99000549316406 rlineto
            return
          </CharString>
          <CharString index="124">
            -1187.990005493164 -465 rmoveto
            -222 234 callsubr
            318 callgsubr
            218 199.99000549316406 190 150 272 231 381 callsubr
            184.02000427246094 -245.99000549316406 -204 -185 -154 -273 vhcurveto
            588 4 rmoveto
            -194.99000549316406 -86.02000427246094 -120 -135 -133.97999572753906 -75.02000427246094 143 177 196 -66 callsubr
            122 136 139 71 -133 -190.02000427246094 vhcurveto
            return
          </CharString>
          <CharString index="125">
            -1248.009994506836 hlineto
            -34 -521.0099945068359 rlineto
            112 hlineto
            66 417.00999450683594 389 11 rlineto
            515 callsubr
            return
          </CharString>
          <CharString index="126">
            1064 1879.979995727539 rmoveto
            -486.00999450683594 -384 -390.99000549316406 -486.00999450683594 -487 384 -394 220 callgsubr
            190 callgsubr
            385 394 487 220 callgsubr
            -385 390.99000549316406 -485.99000549316406 hvcurveto
            -1658 vmoveto
            -430 -328 356 425 424 328 356 430 430 327.99000549316406 -356 -424 -425 -327.99000549316406 -356 -430 hvcurveto
            return
          </CharString>
          <CharString index="127">
            -5 19 39 -7 33 hhcurveto
            140.99000549316406 49 56.99000549316406 81 37.99000549316406 hvcurveto
            54 112 59 281 callsubr
            420 vvcurveto
            110 return
          </CharString>
          <CharString index="128">
            89 callgsubr
            -50 59 return
          </CharString>
          <CharString index="129">
            -23 213 callgsubr
            -125.99000549316406 111 971.9900054931641 185 callgsubr
            return
          </CharString>
          <CharString index="130">
            -16.020004272460938 -95 callgsubr
            return
          </CharString>
          <CharString index="131">
            -78 callgsubr
            178.99000549316406 560.0099945068359 54 callsubr
            return
          </CharString>
          <CharString index="132">
            134 callsubr
            472 callgsubr
            304 callsubr
            rmoveto
            404 callgsubr
            396 callgsubr
            5 callsubr
            -65 hvcurveto
            129 callgsubr
            144 callsubr
            -23 -186.97999572753906 337 callgsubr
            -32 vhcurveto
            134 callgsubr
            vlineto
            113 callgsubr
            -48 rlineto
            2 hlineto
            78 41 267 callgsubr
            95 callgsubr
            255.02000427246094 vvcurveto
            return
          </CharString>
          <CharString index="133">
            -3 callgsubr
            -1 87 callsubr
            vhcurveto
            -123 hlineto
            -25 -4 92 callgsubr
            -182.99000549316406 -41 254 callgsubr
            -6 callsubr
            35 return
          </CharString>
          <CharString index="134">
            118 callgsubr
            976.989990234375 107 return
          </CharString>
          <CharString index="135">
            -52 63 -41 callsubr
            71 callsubr
            93 callsubr
            -1 hlineto
            return
          </CharString>
          <CharString index="136">
            69 callgsubr
            -80 return
          </CharString>
          <CharString index="137">
            rmoveto
            -460 232 -318.99000549316406 return
          </CharString>
          <CharString index="138">
            265 11 callsubr
            -143 141 -240 hhcurveto
            -270 -208 -196 -292.99000549316406 -40 hvcurveto
            -147.99000549316406 -61 callgsubr
            -43 49 61 vvcurveto
            34 24 78.99000549316406 17 -21 callgsubr
            vhcurveto
            -139 24 rlineto
            -21.020004272460938 -14 5 callsubr
            -89.00999450683594 -54.99000549316406 vvcurveto
            -151 153 -54 159 callgsubr
            -2 vhcurveto
            -37 callgsubr
            vlineto
            return
          </CharString>
          <CharString index="139">
            -210.99000549316406 384 hlineto
            95 callgsubr
            30.990005493164062 -1 88 rlineto
            -500 -88 hlineto
            159 61 callsubr
            -385 return
          </CharString>
          <CharString index="140">
            186.97999572753906 947.010009765625 72 callgsubr
            return
          </CharString>
          <CharString index="141">
            30 callsubr
            219 callsubr
            7 vhcurveto
            378 7 298 307.9700012207031 483 vvcurveto
            459 -226 304 -415 -379.99000549316406 -302 -306 -483 vhcurveto
            264 callgsubr
            64 rmoveto
            420.99000549316406 17 189 208.02000427246094 199 callsubr
            hhcurveto
            290 167 -257 -372 11 hvcurveto
            -945.0099945068359 hlineto
            945.0099945068359 return
          </CharString>
          <CharString index="142">
            -53 64 vhcurveto
            1 48 callgsubr
            return
          </CharString>
          <CharString index="143">
            -627 -17 rlineto
            630.9900054931641 vlineto
            return
          </CharString>
          <CharString index="144">
            87 callgsubr
            511 87 vlineto
            -179 21 rlineto
            599 151 vlineto
            165 288.99000549316406 165 callsubr
            return
          </CharString>
          <CharString index="145">
            45 callsubr
            -80 -40 -84 callgsubr
            return
          </CharString>
          <CharString index="146">
            hstemhm
            277.99000549316406 return
          </CharString>
          <CharString index="147">
            91 callsubr
            138 callgsubr
            -6 callsubr
            rcurveline
            -1 hlineto
            return
          </CharString>
          <CharString index="148">
            11 659.9900054931641 rmoveto
            172.02000427246094 -81 callgsubr
            -82 -190 -186 -82 -101 -178 hvcurveto
            -1 hlineto
            -197 -83 128 162 207 121 62 150 hvcurveto
            1 hlineto
            return
          </CharString>
          <CharString index="149">
            446 202 callsubr
            12 callsubr
            hstem
            172 callgsubr
            1473 vstem
            172 callgsubr
            22 rmoveto
            -18 callsubr
            -21.020004272460938 rlineto
            1443 hlineto
            16 25 -750 1490 rlineto
            -31 hlineto
            -692 -1494 rlineto
            1235 105 rmoveto
            -1056.009994506836 hlineto
            505.02000427246094 1123 550.9900054931641 -1123 rlineto
            endchar
          </CharString>
          <CharString index="150">
            479 callgsubr
            88 180 callsubr
            -88 vlineto
            161 11 callgsubr
            -303 -385 rlineto
            return
          </CharString>
          <CharString index="151">
            -34.02000427246094 -35 -105.99000549316406 -41 -86.02000427246094 return
          </CharString>
          <CharString index="152">
            46 callgsubr
            -1 hlineto
            return
          </CharString>
          <CharString index="153">
            134 callsubr
            vstem
            339 callsubr
            1246.990005493164 rmoveto
            -176 93 -161 -78 callgsubr
            vhcurveto
            1 hlineto
            52 38 32 64.99000549316406 hvcurveto
            101 -138.02000427246094 23 187 vvcurveto
            194 98.02000427246094 115 46 112 callsubr
            vhcurveto
            19 vlineto
            -48 48 rlineto
            -2 hlineto
            54 callgsubr
            -41 -158 -183 -255 vvcurveto
            return
          </CharString>
          <CharString index="154">
            -26 callsubr
            316 callgsubr
            hvcurveto
            167 callgsubr
            403 callsubr
            182 callgsubr
            -0.9900054931640625 122 callgsubr
            return
          </CharString>
          <CharString index="155">
            91 callgsubr
            502 callgsubr
            111 rcurveline
            return
          </CharString>
          <CharString index="156">
            -35 76 rlineto
            -852.0099945068359 185 callsubr
            return
          </CharString>
          <CharString index="157">
            23 rlineto
            88 -466 -88 vlineto
            180 -23 rlineto
            -1145 vlineto
            -116 205 return
          </CharString>
          <CharString index="158">
            70 callgsubr
            88 return
          </CharString>
          <CharString index="159">
            470 callsubr
            72 -62 250 callgsubr
            60 130 -78 callgsubr
            92 104 rlinecurve
            -117 -4 callgsubr
            -270.99000549316406 -294.00999450683594 rlineto
            485 2 rmoveto
            162 callsubr
            -64 99 58 142 101 -93 callsubr
            250 callgsubr
            rlinecurve
            -105.99000549316406 99 -291 -287.99000549316406 rlineto
            return
          </CharString>
          <CharString index="160">
            5 -58 callgsubr
            -18 4.0099945068359375 -28 hhcurveto
            -227 -153 -201 189 callsubr
            -24 hvcurveto
            -1 hlineto
            return
          </CharString>
          <CharString index="161">
            177.99000549316406 return
          </CharString>
          <CharString index="162">
            1753.990005493164 rmoveto
            279 -398.99000549316406 rlineto
            return
          </CharString>
          <CharString index="163">
            vlineto
            -530 -61 -317.99000549316406 -104.97999572753906 -154 vhcurveto
            -52 -34.02000427246094 71 callsubr
            -24 -48 hhcurveto
            -82 -48 5 118 callsubr
            -22 hvcurveto
            return
          </CharString>
          <CharString index="164">
            0 96.47999572753906 920.510009765625 72 callsubr
            225 callgsubr
            return
          </CharString>
          <CharString index="165">
            112.99000549316406 return
          </CharString>
          <CharString index="166">
            92 904.9799957275391 171 -49.96000671386719 -65 callsubr
            -38.94999694824219 -65 callsubr
            return
          </CharString>
          <CharString index="167">
            hvcurveto
            -121 hlineto
            -1 -10.020004272460938 -1 -58 callgsubr
            -11 vvcurveto
            return
          </CharString>
          <CharString index="168">
            11 callgsubr
            rlineto
            return
          </CharString>
          <CharString index="169">
            -89 280 callsubr
            -100 -105 -133 vvcurveto
            -179 12 callsubr
            -127 356.99000549316406 vhcurveto
            1 hlineto
            334.99000549316406 263 192 223 hvcurveto
            return
          </CharString>
          <CharString index="170">
            -105 callgsubr
            516 -102 callgsubr
            -192 -32 callgsubr
            256 callgsubr
            618 -432 vlineto
            -191 -17 -95 callgsubr
            return
          </CharString>
          <CharString index="171">
            107.00999450683594 return
          </CharString>
          <CharString index="172">
            -222 -1054 rmoveto
            321 callgsubr
            200 callgsubr
            50 111 callsubr
            2 callgsubr
            hhcurveto
            254.02000427246094 hlineto
            222.99000549316406 35 -69 138 callgsubr
            -166 -216.99000549316406 -98 -215 hvcurveto
            -2 hlineto
            -252 -74 87 148 97 44 75 56 53.97999572753906 hvcurveto
            endchar
          </CharString>
          <CharString index="173">
            98.97000122070312 570.5200042724609 118.5 674.989990234375 98 return
          </CharString>
          <CharString index="174">
            -283 -32 -1 -99 162 267 callsubr
            return
          </CharString>
          <CharString index="175">
            hstemhm
            129 callsubr
            451.99000549316406 return
          </CharString>
          <CharString index="176">
            1824.990005493164 rmoveto
            -64 return
          </CharString>
          <CharString index="177">
            1698.979995727539 rmoveto
            return
          </CharString>
          <CharString index="178">
            -36.99000549316406 return
          </CharString>
          <CharString index="179">
            118.99000549316406 return
          </CharString>
          <CharString index="180">
            33.02000427246094 72 callgsubr
            rlineto
            130 callgsubr
            30.990005493164062 92 40 158 callgsubr
            hhcurveto
            193.99000549316406 64 249 callsubr
            -116 -117 -98 -87.99000549316406 -181 300 callgsubr
            hvcurveto
            -86 -11 rlineto
            -111 vlineto
            1 3 58 callsubr
            13 2 hhcurveto
            return
          </CharString>
          <CharString index="181">
            77 callgsubr
            807.9999847412109 129 return
          </CharString>
          <CharString index="182">
            107 callgsubr
            1 hlineto
            93 39 return
          </CharString>
          <CharString index="183">
            6 10 -29 hvcurveto
            -1 -120 rlineto
            -16 35 return
          </CharString>
          <CharString index="184">
            -480.99000549316406 109 callsubr
            return
          </CharString>
          <CharString index="185">
            rmoveto
            137 callgsubr
            hlineto
            -54 -47 -38 -65 hvcurveto
            -122 99 11 -157.97999572753906 vvcurveto
            -168 113 callsubr
            -23 callgsubr
            -47 -38 vhcurveto
            -19 vlineto
            51 -40 rlineto
            2 hlineto
            104 58 111 176 340 callsubr
            vvcurveto
            155 -48 282 callgsubr
            78 callgsubr
            vhcurveto
            endchar
          </CharString>
          <CharString index="186">
            -496 101.50999450683594 371.49000549316406 -81 callgsubr
            967.989990234375 12 callsubr
            -47.959991455078125 -65 callsubr
            return
          </CharString>
          <CharString index="187">
            rmoveto
            22 21 callsubr
            return
          </CharString>
          <CharString index="188">
            154.99000549316406 return
          </CharString>
          <CharString index="189">
            200.99000549316406 return
          </CharString>
          <CharString index="190">
            -23 180 callgsubr
            591.010009765625 -14 callgsubr
            345.03997802734375 -65 callsubr
            271.010009765625 -14 callgsubr
            return
          </CharString>
          <CharString index="191">
            -94 callgsubr
            628 -102 callgsubr
            -284 -21 callgsubr
            rlineto
            482 vlineto
            -4 147 callgsubr
            117 -5 81 hhcurveto
            return
          </CharString>
          <CharString index="192">
            12 0 87 callsubr
            6 vvcurveto
            -93 hlineto
            -2 138 callsubr
            0 -13 99 callgsubr
            vvcurveto
            return
          </CharString>
          <CharString index="193">
            39.02000427246094 return
          </CharString>
          <CharString index="194">
            10.020004272460938 return
          </CharString>
          <CharString index="195">
            68 callsubr
            -451.99000549316406 return
          </CharString>
          <CharString index="196">
            -32 callsubr
            vhcurveto
            -13 vlineto
            return
          </CharString>
          <CharString index="197">
            152 -19 callgsubr
            vlineto
            -112 -93 -59 -23 callsubr
            -29 hvcurveto
            58 54 callgsubr
            253 callgsubr
            300 callsubr
            317 callgsubr
            hhcurveto
            -1 485 callgsubr
            79.00999450683594 -111 109 callgsubr
            -59 hvcurveto
            return
          </CharString>
          <CharString index="198">
            260 callsubr
            131 callgsubr
            416 callsubr
            return
          </CharString>
          <CharString index="199">
            hstem
            101 callgsubr
            -39 callgsubr
            623.9999847412109 177 vstem
            return
          </CharString>
          <CharString index="200">
            -26 callsubr
            -70 hvcurveto
            return
          </CharString>
          <CharString index="201">
            -88.99000549316406 return
          </CharString>
          <CharString index="202">
            -97.02000427246094 return
          </CharString>
          <CharString index="203">
            hstemhm
            -6 443.97999572753906 -443.97999572753906 1739.979995727539 -401 400.99000549316406 return
          </CharString>
          <CharString index="204">
            285 callgsubr
            -74 callgsubr
            vlineto
            477 202 callsubr
            rlineto
            88 vlineto
            -162 18 rlineto
            922.0099945068359 555 -923.0200042724609 vlineto
            -158 -18 -95 callgsubr
            472 453 callsubr
            18 rlineto
            return
          </CharString>
          <CharString index="205">
            161.99000549316406 return
          </CharString>
          <CharString index="206">
            -112.99000549316406 return
          </CharString>
          <CharString index="207">
            251.99000549316406 return
          </CharString>
          <CharString index="208">
            8 callsubr
            -63 -135 -50 -118 hhcurveto
            -194.99000549316406 -164 146 317.00999450683594 137 callgsubr
            hvcurveto
            -1 115 callgsubr
            8 9 vvcurveto
            728 424 callsubr
            -61 callgsubr
            57 262 callsubr
            78 rrcurveto
            return
          </CharString>
          <CharString index="209">
            959 247 callgsubr
            918.4799957275391 121 -14.949996948242188 19 callgsubr
            -23 callgsubr
            172 callgsubr
            hstemhm
            199 callsubr
            -57 callgsubr
            506 callsubr
            -57 callgsubr
            return
          </CharString>
          <CharString index="210">
            41 -76 callgsubr
            -39 29 callsubr
            return
          </CharString>
          <CharString index="211">
            hlineto
            246 105 callsubr
            return
          </CharString>
          <CharString index="212">
            266 callsubr
            -68 42 -256 -204 -251 204 return
          </CharString>
          <CharString index="213">
            -21 callgsubr
            99 callsubr
            112 callsubr
            return
          </CharString>
          <CharString index="214">
            93 185.99000549316406 658.989990234375 187 return
          </CharString>
          <CharString index="215">
            -90.00999450683594 return
          </CharString>
          <CharString index="216">
            130.99000549316406 return
          </CharString>
          <CharString index="217">
            410.99000549316406 -106.99000549316406 -45 callsubr
            hstemhm
            320 callsubr
            155 309.99000549316406 162.00999450683594 309.010009765625 81 callsubr
            hintmask 10101100
            429 callsubr
            -74 callgsubr
            return
          </CharString>
          <CharString index="218">
            -3.9900054931640625 return
          </CharString>
          <CharString index="219">
            31.990005493164062 return
          </CharString>
          <CharString index="220">
            -78.99000549316406 return
          </CharString>
          <CharString index="221">
            263 callsubr
            -111 110 -262 vhcurveto
            -240 hlineto
            -165 119 callsubr
            187 callsubr
            64 callsubr
            49.99000549316406 30.990005493164062 54 49 232 callsubr
            hvcurveto
            -12.990005493164062 47 52 -6 54 hhcurveto
            return
          </CharString>
          <CharString index="222">
            -123 133 callsubr
            -122.99000549316406 149.99000549316406 return
          </CharString>
          <CharString index="223">
            hstemhm
            30 callgsubr
            return
          </CharString>
          <CharString index="224">
            94 callgsubr
            169 return
          </CharString>
          <CharString index="225">
            4.0200042724609375 return
          </CharString>
          <CharString index="226">
            -60.99000549316406 return
          </CharString>
          <CharString index="227">
            143 -37 callsubr
            -488 -88 vlineto
            342 callsubr
            61 callsubr
            -463.00999450683594 vlineto
            -28 -54.99000549316406 -150.02000427246094 -22 -105 hhcurveto
            -228.99000549316406 -46 77.99000549316406 310 hvcurveto
            return
          </CharString>
          <CharString index="228">
            158 5 callsubr
            211 callsubr
            return
          </CharString>
          <CharString index="229">
            276 callsubr
            2 hlineto
            endchar
          </CharString>
          <CharString index="230">
            6 callsubr
            -64 39 -52 64 -88 callgsubr
            return
          </CharString>
          <CharString index="231">
            454.99000549316406 102.5 164.5 297.97999572753906 -47.97999572753906 -18 callgsubr
            return
          </CharString>
          <CharString index="232">
            397 callsubr
            114.5 1308.490005493164 99 return
          </CharString>
          <CharString index="233">
            124 108.02000427246094 34.970001220703125 return
          </CharString>
          <CharString index="234">
            -20 callgsubr
            hstemhm
            return
          </CharString>
          <CharString index="235">
            0 -78 callgsubr
            return
          </CharString>
          <CharString index="236">
            3.9900054931640625 return
          </CharString>
          <CharString index="237">
            113.99000549316406 return
          </CharString>
          <CharString index="238">
            227.97999572753906 return
          </CharString>
          <CharString index="239">
            26.990005493164062 return
          </CharString>
          <CharString index="240">
            172.99000549316406 return
          </CharString>
          <CharString index="241">
            141.99000549316406 return
          </CharString>
          <CharString index="242">
            287 callsubr
            377 callsubr
            89 303 callgsubr
            193 callgsubr
            return
          </CharString>
          <CharString index="243">
            hstem
            -19 490.97999572753906 110 172 133 445 vstem
            return
          </CharString>
          <CharString index="244">
            166.99000549316406 return
          </CharString>
          <CharString index="245">
            -14.009994506835938 return
          </CharString>
          <CharString index="246">
            -130 -166 -32 callsubr
            -30 -61 hvcurveto
            -260 92 vlineto
            41 157 rlineto
            33 43 74 19.990005493164062 102.02000427246094 hhcurveto
            302 callsubr
            -31 callsubr
            -138 -301 -21 callgsubr
            hvcurveto
            return
          </CharString>
          <CharString index="247">
            -441 -363 1962 hstem
            77.99000549316406 725.9900054931641 vstem
            651 1599 rmoveto
            -573.0099945068359 -1962 rlineto
            153 hlineto
            572.9900054931641 1962 rlineto
            376 callsubr
            hlineto
            endchar
          </CharString>
          <CharString index="248">
            11 callsubr
            hvcurveto
            return
          </CharString>
          <CharString index="249">
            292 -30 callgsubr
            -159.99000549316406 -147 -231 -127 -101 -225 -147 -93 23 29 -58 hvcurveto
            return
          </CharString>
          <CharString index="250">
            51 111 vvcurveto
            133 callgsubr
            98 74 117 128 87 -79 163 callgsubr
            -63 -51 -88 -82 -47 vhcurveto
            return
          </CharString>
          <CharString index="251">
            137.99000549316406 return
          </CharString>
          <CharString index="252">
            85.02000427246094 return
          </CharString>
          <CharString index="253">
            -73.99000549316406 return
          </CharString>
          <CharString index="254">
            88.99000549316406 return
          </CharString>
          <CharString index="255">
            90.00999450683594 return
          </CharString>
          <CharString index="256">
            -15 callsubr
            endchar
          </CharString>
          <CharString index="257">
            39 vhcurveto
            -130 -30 -12 -35 rlineto
            25.009994506835938 -35 132 callsubr
            99 callsubr
            -113.00999450683594 vvcurveto
            -77 99 callgsubr
            -97 434 callsubr
            -83 vhcurveto
            3 -32 callsubr
            rlineto
            return
          </CharString>
          <CharString index="258">
            1 hlineto
            11 659.9900054931641 rmoveto
            280 callgsubr
            97 -82 -190 -186 -81.99000549316406 -101 -178 hvcurveto
            -1 hlineto
            -197 -83 128 162 207 121.02000427246094 62 150 hvcurveto
            1 hlineto
            return
          </CharString>
          <CharString index="259">
            5 callgsubr
            105 187 callsubr
            298 callsubr
            48 rlineto
            -41 -19 -33 -91.02000427246094 return
          </CharString>
          <CharString index="260">
            1556.990005493164 rmoveto
            -126 535 126 -535 vlineto
            return
          </CharString>
          <CharString index="261">
            -78 callgsubr
            993.989990234375 94 return
          </CharString>
          <CharString index="262">
            -35 -34.970001220703125 -108.02000427246094 return
          </CharString>
          <CharString index="263">
            -38 callsubr
            hlineto
            return
          </CharString>
          <CharString index="264">
            158.99000549316406 return
          </CharString>
          <CharString index="265">
            99.97999572753906 return
          </CharString>
          <CharString index="266">
            -73.00999450683594 return
          </CharString>
          <CharString index="267">
            vvcurveto
            -145 109 callgsubr
            -47 13 callgsubr
            -93 callsubr
            91.00999450683594 132 callsubr
            43 57 vhcurveto
            86 vlineto
            -24 -48 -59 -17 -52.99000549316406 hhcurveto
            -85.00999450683594 return
          </CharString>
          <CharString index="268">
            54 callgsubr
            hlineto
            188 callsubr
            -338 rlineto
            -29 71 149 -47.97999572753906 198 hhcurveto
            return
          </CharString>
          <CharString index="269">
            71.99000549316406 return
          </CharString>
          <CharString index="270">
            -18 callsubr
            -61 -76 11 -80 hhcurveto
            289 callgsubr
            return
          </CharString>
          <CharString index="271">
            0 97.5 609.4900054931641 90 return
          </CharString>
          <CharString index="272">
            -706.9900054931641 141 hhcurveto
            return
          </CharString>
          <CharString index="273">
            hlineto
            87 callsubr
            return
          </CharString>
          <CharString index="274">
            -169 -95 -169.99000549316406 -2 hvcurveto
            325 -200 rmoveto
            -1 hlineto
            -138 119 callsubr
            340 callgsubr
            105 111.99000549316406 75 70 52 callgsubr
            hvcurveto
            1 hlineto
            136 return
          </CharString>
          <CharString index="275">
            rmoveto
            -83.99000549316406 -8 callsubr
            vlineto
            377 callsubr
            72 callgsubr
            -23 83 hhcurveto
            return
          </CharString>
          <CharString index="276">
            23 rlineto
            88 -509.00999450683594 195 callsubr
            return
          </CharString>
          <CharString index="277">
            -131.99000549316406 -19 rlineto
            return
          </CharString>
          <CharString index="278">
            12.990005493164062 return
          </CharString>
          <CharString index="279">
            26.009994506835938 return
          </CharString>
          <CharString index="280">
            14 268.97999572753906 12 callsubr
            441.00001525878906 12 callgsubr
            hstem
            315 callsubr
            917.0099945068359 vstem
            315 callsubr
            961.9900054931641 rmoveto
            -126 return
          </CharString>
          <CharString index="281">
            398 -23 -40 callgsubr
            113 callsubr
            -81 callgsubr
            477 -45 callsubr
            348.5299835205078 106.47000122070312 -88.989990234375 147 callsubr
            return
          </CharString>
          <CharString index="282">
            82 callsubr
            187 118 hlineto
            -187 11 callsubr
            rlineto
            286 vlineto
            -128 -10 return
          </CharString>
          <CharString index="283">
            -124 216.99000549316406 hhcurveto
            1 hlineto
            169 152 98 178 2 hvcurveto
            86 callgsubr
            return
          </CharString>
          <CharString index="284">
            281 callgsubr
            98 callsubr
            452.99998474121094 478 return
          </CharString>
          <CharString index="285">
            79.02000427246094 -125.00999450683594 return
          </CharString>
          <CharString index="286">
            -200.99000549316406 return
          </CharString>
          <CharString index="287">
            -445.00999450683594 return
          </CharString>
          <CharString index="288">
            354 callgsubr
            221 callgsubr
            -130 212 203 121 131 168.97999572753906 -18 callsubr
            0 12 -27 callgsubr
            -18 callsubr
            vhcurveto
            return
          </CharString>
          <CharString index="289">
            228 callsubr
            hintmask 01111110
            return
          </CharString>
          <CharString index="290">
            247 callgsubr
            940.4799957275391 128 return
          </CharString>
          <CharString index="291">
            650 82 callgsubr
            -116 -148 return
          </CharString>
          <CharString index="292">
            -313 111 hlineto
            30 192 557 16 return
          </CharString>
          <CharString index="293">
            -95.99000549316406 return
          </CharString>
          <CharString index="294">
            32.99000549316406 return
          </CharString>
          <CharString index="295">
            -33.02000427246094 return
          </CharString>
          <CharString index="296">
            -25.990005493164062 return
          </CharString>
          <CharString index="297">
            113 callgsubr
            rlineto
            -41.99000549316406 -71 callgsubr
            267 callsubr
            399 callsubr
            -118 -24 174 434 callgsubr
            hhcurveto
            return
          </CharString>
          <CharString index="298">
            -18 callgsubr
            -74 callgsubr
            return
          </CharString>
          <CharString index="299">
            -20 callsubr
            1325.010009765625 -53 callsubr
            return
          </CharString>
          <CharString index="300">
            0 3 callgsubr
            return
          </CharString>
          <CharString index="301">
            hlineto
            -66 callsubr
            return
          </CharString>
          <CharString index="302">
            283 callgsubr
            rlineto
            return
          </CharString>
          <CharString index="303">
            100 -53 callgsubr
            117 vvcurveto
            173 -147.99000549316406 133 callgsubr
            -259.00999450683594 vhcurveto
            -214 132 callgsubr
            -55 437 callgsubr
            hhcurveto
            return
          </CharString>
          <CharString index="304">
            1828.990005493164 rmoveto
            -65 39 -51 64 vhcurveto
            1 194 callsubr
            40 60 73 58 return
          </CharString>
          <CharString index="305">
            hstem
            259.99000549316406 186 callgsubr
            355.00999450683594 444.97999572753906 vstem
            return
          </CharString>
          <CharString index="306">
            270.99000549316406 return
          </CharString>
          <CharString index="307">
            41.99000549316406 return
          </CharString>
          <CharString index="308">
            66.99000549316406 return
          </CharString>
          <CharString index="309">
            0.9799957275390625 return
          </CharString>
          <CharString index="310">
            vstem
            945.9900054931641 680 rmoveto
            -657 439.99000549316406 -50 -87 512 -418 -518 -408 56 -91 657 427.99000549316406 rlineto
            136 vlineto
            return
          </CharString>
          <CharString index="311">
            -81 callgsubr
            577.9799957275391 101 661.0200042724609 84.99000549316406 328 callsubr
            -28 callsubr
            return
          </CharString>
          <CharString index="312">
            393 callsubr
            -338 309 rlineto
            167 callgsubr
            -115.02000427246094 -105.99000549316406 rlineto
            return
          </CharString>
          <CharString index="313">
            108 callsubr
            -82.99000549316406 24 341 callgsubr
            159 callsubr
            return
          </CharString>
          <CharString index="314">
            1556.990005493164 rmoveto
            -126 535.0200042724609 126 -535.0200042724609 vlineto
            return
          </CharString>
          <CharString index="315">
            rlineto
            -552.0200042724609 -1 -79 -312 -117 hhcurveto
            -69 -47 return
          </CharString>
          <CharString index="316">
            227 -187.989990234375 -52 callgsubr
            return
          </CharString>
          <CharString index="317">
            vstem
            -8 callsubr
            677.9900054931641 rmoveto
            return
          </CharString>
          <CharString index="318">
            392 callgsubr
            vlineto
            return
          </CharString>
          <CharString index="319">
            179.99000549316406 return
          </CharString>
          <CharString index="320">
            -9.020004272460938 return
          </CharString>
          <CharString index="321">
            -32 rlineto
            -92 vlineto
            return
          </CharString>
          <CharString index="322">
            311 callgsubr
            -40.02000427246094 89 callsubr
            return
          </CharString>
          <CharString index="323">
            -101 27 -161 383 -192 93 rlinecurve
            302 callgsubr
            405.02000427246094 return
          </CharString>
          <CharString index="324">
            456 callsubr
            -239 219 callgsubr
            -49 10 1 callsubr
            -59 return
          </CharString>
          <CharString index="325">
            468.99000549316406 return
          </CharString>
          <CharString index="326">
            414.99000549316406 return
          </CharString>
          <CharString index="327">
            537.9900054931641 return
          </CharString>
          <CharString index="328">
            131.99000549316406 return
          </CharString>
          <CharString index="329">
            vstem
            263.97999572753906 1683.990005493164 rmoveto
            38 -723 rlineto
            -45 callsubr
            hlineto
            86 callsubr
            723 rlineto
            -184.02000427246094 hlineto
            return
          </CharString>
          <CharString index="330">
            hstemhm
            653.9799957275391 154 -61 254 callsubr
            return
          </CharString>
          <CharString index="331">
            199 callsubr
            -127 161 -400.02000427246094 return
          </CharString>
          <CharString index="332">
            228 220 228 return
          </CharString>
          <CharString index="333">
            41 -76 callgsubr
            -39 69 callgsubr
            64 callgsubr
            -39 -84 callgsubr
            return
          </CharString>
          <CharString index="334">
            47 -1308.020004272461 rlineto
            104 hlineto
            43 1308.020004272461 rlineto
            -194 hlineto
            return
          </CharString>
          <CharString index="335">
            -28 callsubr
            402 104 return
          </CharString>
          <CharString index="336">
            302 callgsubr
            rlineto
            17 -70 -182 47 return
          </CharString>
          <CharString index="337">
            hstemhm
            281 callsubr
            -39 callgsubr
            return
          </CharString>
          <CharString index="338">
            -108.99000549316406 return
          </CharString>
          <CharString index="339">
            38.99000549316406 return
          </CharString>
          <CharString index="340">
            460.97999572753906 return
          </CharString>
          <CharString index="341">
            136.99000549316406 return
          </CharString>
          <CharString index="342">
            27 callsubr
            520.010009765625 43 295 callgsubr
            return
          </CharString>
          <CharString index="343">
            382 callsubr
            -96.00999450683594 219 callgsubr
            -24 174 -165 hhcurveto
            return
          </CharString>
          <CharString index="344">
            -21.020004272460938 337 rlineto
            -1072 -88 hlineto
            179.02000427246094 -23 rlineto
            -1305.009994506836 vlineto
            -167.02000427246094 -18 rlineto
            endchar
          </CharString>
          <CharString index="345">
            1303.979995727539 1537.990005493164 rmoveto
            -656 -1537.990005493164 rlineto
            134 hlineto
            656 1537.990005493164 rlineto
            -134 hlineto
            return
          </CharString>
          <CharString index="346">
            242 callgsubr
            46 hhcurveto
            1 75 callgsubr
            return
          </CharString>
          <CharString index="347">
            76 callsubr
            214 callgsubr
            -11 46 hhcurveto
            return
          </CharString>
          <CharString index="348">
            29 callsubr
            -39 -84 callgsubr
            return
          </CharString>
          <CharString index="349">
            129 callgsubr
            -93 -16 -109 hhcurveto
            -251 hlineto
            return
          </CharString>
          <CharString index="350">
            rlineto
            88 180 callsubr
            -88 vlineto
            return
          </CharString>
          <CharString index="351">
            -32 callgsubr
            797 vlineto
            return
          </CharString>
          <CharString index="352">
            642 838.9900054931641 rlineto
            return
          </CharString>
          <CharString index="353">
            -102 callgsubr
            -179 return
          </CharString>
          <CharString index="354">
            hlineto
            1 callsubr
            return
          </CharString>
          <CharString index="355">
            -6 -32 callsubr
            return
          </CharString>
          <CharString index="356">
            -68.02000427246094 return
          </CharString>
          <CharString index="357">
            -96.00999450683594 return
          </CharString>
          <CharString index="358">
            523.9799957275391 return
          </CharString>
          <CharString index="359">
            -5.0200042724609375 return
          </CharString>
          <CharString index="360">
            285.97999572753906 return
          </CharString>
          <CharString index="361">
            155.99000549316406 return
          </CharString>
          <CharString index="362">
            132.02000427246094 return
          </CharString>
          <CharString index="363">
            -175 -19 rlineto
            return
          </CharString>
          <CharString index="364">
            -17 callsubr
            577.9799957275391 101 661.0200042724609 84.99000549316406 328 callsubr
            return
          </CharString>
          <CharString index="365">
            vlineto
            86 callgsubr
            51 callsubr
            -448.99000549316406 -88 vlineto
            109 callsubr
            61 callsubr
            return
          </CharString>
          <CharString index="366">
            1879.979995727539 rmoveto
            12 callgsubr
            32 -175 163 hhcurveto
            return
          </CharString>
          <CharString index="367">
            128 callgsubr
            1 hlineto
            93 39 return
          </CharString>
          <CharString index="368">
            98 1363.979995727539 99 return
          </CharString>
          <CharString index="369">
            -0.9799957275390625 return
          </CharString>
          <CharString index="370">
            169.97999572753906 return
          </CharString>
          <CharString index="371">
            -71.99000549316406 return
          </CharString>
          <CharString index="372">
            173.99000549316406 return
          </CharString>
          <CharString index="373">
            276.99000549316406 return
          </CharString>
          <CharString index="374">
            -35.99000549316406 return
          </CharString>
          <CharString index="375">
            -458 -185.99000549316406 1965.990005493164 hstem
            358.99000549316406 147 vstem
            358.99000549316406 1780 rmoveto
            return
          </CharString>
          <CharString index="376">
            -296 -277.99000549316406 -12 callgsubr
            791.9799957275391 142 774.010009765625 -53 callgsubr
            hstemhm
            return
          </CharString>
          <CharString index="377">
            109 callsubr
            906.989990234375 121 return
          </CharString>
          <CharString index="378">
            -93 161 186 callsubr
            vhcurveto
            -1 hlineto
            -52 return
          </CharString>
          <CharString index="379">
            -509.99000549316406 115 394.99000549316406 return
          </CharString>
          <CharString index="380">
            400 -65 464 callsubr
            -284 310 return
          </CharString>
          <CharString index="381">
            -25 callgsubr
            rrcurveto
            return
          </CharString>
          <CharString index="382">
            1966.979995727539 rmoveto
            return
          </CharString>
          <CharString index="383">
            -49 callgsubr
            rlineto
            return
          </CharString>
          <CharString index="384">
            78 callgsubr
            vlineto
            172 -24 rlineto
            -1308 vlineto
            -177 -18 -95 callgsubr
            265.99000549316406 vlineto
            return
          </CharString>
          <CharString index="385">
            135.97999572753906 221 vhcurveto
            373 vlineto
            151 23 rlineto
            98 return
          </CharString>
          <CharString index="386">
            -17 121.97000122070312 947.0200042724609 -93 callsubr
            return
          </CharString>
          <CharString index="387">
            -48.99000549316406 return
          </CharString>
          <CharString index="388">
            258.99000549316406 return
          </CharString>
          <CharString index="389">
            93.97999572753906 return
          </CharString>
          <CharString index="390">
            120.00999450683594 return
          </CharString>
          <CharString index="391">
            -148.99000549316406 return
          </CharString>
          <CharString index="392">
            -532.0099945068359 return
          </CharString>
          <CharString index="393">
            -61.99000549316406 return
          </CharString>
          <CharString index="394">
            347 callsubr
            131 callgsubr
            128 return
          </CharString>
          <CharString index="395">
            215 callgsubr
            -174 -19 rlineto
            endchar
          </CharString>
          <CharString index="396">
            vlineto
            -39 330 callgsubr
            return
          </CharString>
          <CharString index="397">
            165 callgsubr
            3 callgsubr
            return
          </CharString>
          <CharString index="398">
            -99 244 246 132 367 callsubr
            return
          </CharString>
          <CharString index="399">
            -91 -104 hvcurveto
            -120 -1 -63 -19 callgsubr
            -129 hhcurveto
            return
          </CharString>
          <CharString index="400">
            -172 -97 -74 -171 -104 -66.99000549316406 11 6 -37 return
          </CharString>
          <CharString index="401">
            39 -53 335 callgsubr
            return
          </CharString>
          <CharString index="402">
            99 604.010009765625 -14 callgsubr
            return
          </CharString>
          <CharString index="403">
            -204 -185 202 callgsubr
            -272 return
          </CharString>
          <CharString index="404">
            204 146 callsubr
            return
          </CharString>
          <CharString index="405">
            hvcurveto
            -23 callgsubr
            return
          </CharString>
          <CharString index="406">
            217.99000549316406 return
          </CharString>
          <CharString index="407">
            27.009994506835938 return
          </CharString>
          <CharString index="408">
            230.99000549316406 return
          </CharString>
          <CharString index="409">
            189.99000549316406 return
          </CharString>
          <CharString index="410">
            6.9900054931640625 return
          </CharString>
          <CharString index="411">
            -26.990005493164062 return
          </CharString>
          <CharString index="412">
            167.02000427246094 return
          </CharString>
          <CharString index="413">
            138.02000427246094 return
          </CharString>
          <CharString index="414">
            -67 callgsubr
            1326.020004272461 475 callsubr
            603.9900054931641 58 callgsubr
            return
          </CharString>
          <CharString index="415">
            1374.990005493164 rmoveto
            64.99000549316406 -42 296.02000427246094 310 407 callgsubr
            -309 return
          </CharString>
          <CharString index="416">
            34 rlineto
            -135.99000549316406 hlineto
            -5 -13 -455 -794.9900054931641 -4 319 callsubr
            rrcurveto
            endchar
          </CharString>
          <CharString index="417">
            hstemhm
            208.99000549316406 -57 callgsubr
            348.99998474121094 473 -417 366 callgsubr
            return
          </CharString>
          <CharString index="418">
            hstemhm
            119 callgsubr
            166 115 callsubr
            return
          </CharString>
          <CharString index="419">
            351 callsubr
            hintmask 10111000
            return
          </CharString>
          <CharString index="420">
            117 callsubr
            780.989990234375 170 return
          </CharString>
          <CharString index="421">
            hstemhm
            107 callsubr
            return
          </CharString>
          <CharString index="422">
            209.97999572753906 return
          </CharString>
          <CharString index="423">
            221.97999572753906 return
          </CharString>
          <CharString index="424">
            266.99000549316406 return
          </CharString>
          <CharString index="425">
            52.97999572753906 return
          </CharString>
          <CharString index="426">
            -8.009994506835938 return
          </CharString>
          <CharString index="427">
            81.97999572753906 return
          </CharString>
          <CharString index="428">
            98.49000549316406 return
          </CharString>
          <CharString index="429">
            103.00999450683594 return
          </CharString>
          <CharString index="430">
            142.99000549316406 return
          </CharString>
          <CharString index="431">
            173.02000427246094 return
          </CharString>
          <CharString index="432">
            hlineto
            93 39 235 416 callsubr
            -114 -6 callsubr
            rcurveline
            -1 hlineto
            444 callgsubr
            rlineto
            return
          </CharString>
          <CharString index="433">
            253 callsubr
            165 572.010009765625 -39 callgsubr
            562.9999847412109 165 return
          </CharString>
          <CharString index="434">
            193 callsubr
            211 195 callgsubr
            return
          </CharString>
          <CharString index="435">
            -23 callgsubr
            -14 callgsubr
            return
          </CharString>
          <CharString index="436">
            45.99000549316406 472.97999572753906 return
          </CharString>
          <CharString index="437">
            -20 callgsubr
            hstem
            return
          </CharString>
          <CharString index="438">
            394 callgsubr
            98.02000427246094 74 return
          </CharString>
          <CharString index="439">
            19 -23 104 631.9900054931641 132.50999450683594 591.4900054931641 -14 callgsubr
            return
          </CharString>
          <CharString index="440">
            -12 -2 -58 callgsubr
            rrcurveto
            78 callgsubr
            return
          </CharString>
          <CharString index="441">
            698.9799957275391 135 hstem
            58 callsubr
            return
          </CharString>
          <CharString index="442">
            69 63 428 callsubr
            return
          </CharString>
          <CharString index="443">
            hstem
            261 callgsubr
            return
          </CharString>
          <CharString index="444">
            226.97999572753906 166 return
          </CharString>
          <CharString index="445">
            241.99000549316406 return
          </CharString>
          <CharString index="446">
            236.99000549316406 return
          </CharString>
          <CharString index="447">
            235.99000549316406 return
          </CharString>
          <CharString index="448">
            176 23 rlineto
            88 return
          </CharString>
          <CharString index="449">
            183.99000549316406 return
          </CharString>
          <CharString index="450">
            -46 24 rlineto
            -2 hlineto
            return
          </CharString>
          <CharString index="451">
            448 hmoveto
            -64 return
          </CharString>
          <CharString index="452">
            vlineto
            153 29.990005493164062 440 callgsubr
            return
          </CharString>
          <CharString index="453">
            410 callsubr
            30.009994506835938 return
          </CharString>
          <CharString index="454">
            70 callsubr
            -1 callsubr
            260 callsubr
            return
          </CharString>
          <CharString index="455">
            rmoveto
            114 callgsubr
            -228 rlineto
            -34 77 152 -41.97999572753906 198 hhcurveto
            return
          </CharString>
          <CharString index="456">
            0 43 267 callgsubr
            92.5 return
          </CharString>
          <CharString index="457">
            154 439.010009765625 81 callsubr
            return
          </CharString>
          <CharString index="458">
            hstemhm
            -42 2107 -485.00999450683594 485 return
          </CharString>
          <CharString index="459">
            -283.00999450683594 -414 134 callgsubr
            return
          </CharString>
          <CharString index="460">
            109 callgsubr
            hstem
            return
          </CharString>
          <CharString index="461">
            -30 callgsubr
            hvcurveto
            return
          </CharString>
          <CharString index="462">
            -93 callsubr
            hstemhm
            return
          </CharString>
          <CharString index="463">
            85.00999450683594 return
          </CharString>
          <CharString index="464">
            311.99000549316406 return
          </CharString>
          <CharString index="465">
            -129.99000549316406 return
          </CharString>
          <CharString index="466">
            -323.00999450683594 return
          </CharString>
          <CharString index="467">
            -114.02000427246094 return
          </CharString>
          <CharString index="468">
            -144.02000427246094 return
          </CharString>
          <CharString index="469">
            -96.99000549316406 return
          </CharString>
          <CharString index="470">
            -99.99000549316406 return
          </CharString>
          <CharString index="471">
            -69.97999572753906 return
          </CharString>
          <CharString index="472">
            -47.99000549316406 return
          </CharString>
          <CharString index="473">
            69.97999572753906 return
          </CharString>
          <CharString index="474">
            98 211 11 -1 -3 callgsubr
            -1 87 callsubr
            vhcurveto
            -123 hlineto
            return
          </CharString>
          <CharString index="475">
            590.0099945068359 -589 265 callgsubr
            93 -442 440 104 -11 rlineto
            return
          </CharString>
          <CharString index="476">
            171 -23 rlineto
            return
          </CharString>
          <CharString index="477">
            -115 -320.97999572753906 -583 226 callgsubr
            287 callgsubr
            return
          </CharString>
          <CharString index="478">
            hlineto
            385 callsubr
            return
          </CharString>
          <CharString index="479">
            211 callgsubr
            505 163 return
          </CharString>
          <CharString index="480">
            -3 callgsubr
            0 12 7 vvcurveto
            -92 hlineto
            return
          </CharString>
          <CharString index="481" raw="1">
            f71d1d1f 880b  
          </CharString>
          <CharString index="482">
            244 234 callgsubr
            return
          </CharString>
          <CharString index="483">
            -152.99000549316406 return
          </CharString>
          <CharString index="484">
            69.02000427246094 return
          </CharString>
          <CharString index="485">
            190.02000427246094 return
          </CharString>
          <CharString index="486">
            -44.99000549316406 return
          </CharString>
          <CharString index="487">
            114.00999450683594 return
          </CharString>
          <CharString index="488">
            -110.02000427246094 return
          </CharString>
          <CharString index="489">
            113 callgsubr
            rlineto
            -41.99000549316406 -16 -36 108 callsubr
            return
          </CharString>
          <CharString index="490">
            6 callgsubr
            444 353.989990234375 159 353 445 return
          </CharString>
          <CharString index="491">
            960.9799957275391 723 hstem
            281 callgsubr
            145.49000549316406 return
          </CharString>
          <CharString index="492">
            356 callsubr
            450 callgsubr
            return
          </CharString>
          <CharString index="493">
            171 159 vvcurveto
            97 -23 105 return
          </CharString>
          <CharString index="494">
            126 30 -173 163 hhcurveto
            return
          </CharString>
          <CharString index="495">
            hhcurveto
            -247.99000549316406 -88 hlineto
            return
          </CharString>
          <CharString index="496">
            -1205.990005493164 rlineto
            return
          </CharString>
          <CharString index="497">
            130 callgsubr
            rlineto
            return
          </CharString>
          <CharString index="498">
            58 -49 callgsubr
            return
          </CharString>
          <CharString index="499">
            hstemhm
            72 callsubr
            return
          </CharString>
          <CharString index="500">
            -128 94 -39 rrcurveto
            1 hlineto
            2 callgsubr
            318 callsubr
            return
          </CharString>
          <CharString index="501">
            147 callgsubr
            rlineto
            1305.009994506836 vlineto
            187 23 rlineto
            88 return
          </CharString>
          <CharString index="502">
            hlineto
            1 -7 -1 333 callsubr
            return
          </CharString>
          <CharString index="503">
            277.99000549316406 72 callsubr
            return
          </CharString>
          <CharString index="504">
            -67 callgsubr
            -97.47999572753906 return
          </CharString>
          <CharString index="505">
            -24 callgsubr
            -23 callgsubr
            return
          </CharString>
          <CharString index="506">
            108 callsubr
            250 callsubr
            return
          </CharString>
          <CharString index="507">
            236.00999450683594 100 callsubr
            return
          </CharString>
          <CharString index="508">
            250.97999572753906 return
          </CharString>
          <CharString index="509">
            201.99000549316406 return
          </CharString>
          <CharString index="510">
            -81.02000427246094 return
          </CharString>
          <CharString index="511">
            -111.99000549316406 return
          </CharString>
          <CharString index="512">
            -22.020004272460938 return
          </CharString>
          <CharString index="513">
            -329.99000549316406 return
          </CharString>
          <CharString index="514">
            -91.00999450683594 return
          </CharString>
          <CharString index="515">
            264.00999450683594 return
          </CharString>
          <CharString index="516">
            1195.990005493164 return
          </CharString>
          <CharString index="517">
            -20 -40 callgsubr
            385.989990234375 50.99000549316406 return
          </CharString>
          <CharString index="518">
            94 callsubr
            vlineto
            162 -30 rlineto
            -911.0200042724609 vlineto
            return
          </CharString>
          <CharString index="519">
            1 hlineto
            134.99000549316406 55 -75 -100 -104 -63 -56 -129 hvcurveto
            return
          </CharString>
          <CharString index="520">
            297.97999572753906 -47.97999572753906 -18 callgsubr
            hstemhm
            return
          </CharString>
          <CharString index="521">
            1145.990005493164 646.9799957275391 hstem
            299 callsubr
            return
          </CharString>
          <CharString index="522">
            718.0099945068359 vlineto
            endchar
          </CharString>
          <CharString index="523">
            128 69 89 return
          </CharString>
          <CharString index="524">
            hstemhm
            340 callsubr
            251 -209.510009765625 149 return
          </CharString>
          <CharString index="525">
            -451 -281 113 1704 180 callgsubr
            hstem
            return
          </CharString>
          <CharString index="526">
            189 callgsubr
            706.5200042724609 -53 callsubr
            return
          </CharString>
          <CharString index="527">
            336 callsubr
            vstem
            return
          </CharString>
          <CharString index="528">
            -66.99000549316406 -65 -59 return
          </CharString>
          <CharString index="529">
            19 93 934.0099945068359 return
          </CharString>
          <CharString index="530">
            rlineto
            -61 callgsubr
            hlineto
            return
          </CharString>
          <CharString index="531">
            hlineto
            10 45.02000427246094 return
          </CharString>
          <CharString index="532">
            477 callgsubr
            69 -89 return
          </CharString>
          <CharString index="533">
            188 callsubr
            rrcurveto
            return
          </CharString>
          <CharString index="534">
            -53 callsubr
            hstem
            return
          </CharString>
          <CharString index="535">
            2 callgsubr
            80 return
          </CharString>
          <CharString index="536">
            262.97999572753906 return
          </CharString>
          <CharString index="537">
            13.990005493164062 return
          </CharString>
          <CharString index="538">
            -57.02000427246094 return
          </CharString>
          <CharString index="539">
            126.02000427246094 return
          </CharString>
          <CharString index="540">
            82.97999572753906 return
          </CharString>
          <CharString index="541">
            -27.020004272460938 return
          </CharString>
          <CharString index="542">
            -206.99000549316406 return
          </CharString>
          <CharString index="543">
            -42 477 callsubr
            return
          </CharString>
          <CharString index="544">
            58.97999572753906 return
          </CharString>
          <CharString index="545">
            178.02000427246094 return
          </CharString>
          <CharString index="546">
            409 callsubr
            rlineto
            hintmask 11101100
            -44 76 rlineto
            -965 hlineto
            return
          </CharString>
          <CharString index="547">
            -74 callgsubr
            263 vlineto
            return
          </CharString>
          <CharString index="548">
            -69 -58 -75 -70 2 callgsubr
            201 callgsubr
            return
          </CharString>
          <CharString index="549">
            180 72.00999450683594 49 110 99 vvcurveto
            127 return
          </CharString>
          <CharString index="550">
            -162 -17 rlineto
            endchar
          </CharString>
          <CharString index="551">
            -1303 vlineto
            return
          </CharString>
          <CharString index="552">
            -320 -221 -167 -326 -281.99000549316406 return
          </CharString>
          <CharString index="553">
            267 184 callsubr
            return
          </CharString>
          <CharString index="554">
            vlineto
            -221 -81 -22 callgsubr
            -169 -151 return
          </CharString>
          <CharString index="555">
            rmoveto
            -63 155 callgsubr
            return
          </CharString>
          <CharString index="556">
            hlineto
            16 229 callsubr
            return
          </CharString>
          <CharString index="557">
            -913 486 callgsubr
          </CharString>
          <CharString index="558">
            540 -20 callsubr
            return
          </CharString>
          <CharString index="559">
            103 74 137 callgsubr
            hvcurveto
            return
          </CharString>
          <CharString index="560">
            -102 callgsubr
            -154 return
          </CharString>
          <CharString index="561">
            164 7 callgsubr
            return
          </CharString>
          <CharString index="562">
            -102 callgsubr
            -134 return
          </CharString>
          <CharString index="563">
            -128.99000549316406 return
          </CharString>
          <CharString index="564">
            -333.99000549316406 return
          </CharString>
          <CharString index="565">
            184.99000549316406 return
          </CharString>
          <CharString index="566">
            140.97999572753906 return
          </CharString>
          <CharString index="567">
            293.99000549316406 return
          </CharString>
          <CharString index="568">
            748.9900054931641 return
          </CharString>
          <CharString index="569">
            -110.97999572753906 return
          </CharString>
          <CharString index="570">
            535.9799957275391 return
          </CharString>
          <CharString index="571">
            42 -290 -310 return
          </CharString>
          <CharString index="572">
            hvcurveto
            -1 hlineto
            -80 -39 -19 callgsubr
            -69 hvcurveto
            return
          </CharString>
          <CharString index="573">
            -88 vlineto
            109 callsubr
            -25 callgsubr
            return
          </CharString>
          <CharString index="574">
            -22 249.97999572753906 -249.97000122070312 43 return
          </CharString>
          <CharString index="575">
            148 callsubr
            113 callgsubr
            141 return
          </CharString>
          <CharString index="576">
            vlineto
            -31 callsubr
            return
          </CharString>
          <CharString index="577">
            1717.990005493164 rmoveto
            return
          </CharString>
          <CharString index="578">
            hvcurveto
            -27 callgsubr
            return
          </CharString>
          <CharString index="579">
            21 138 callsubr
            return
          </CharString>
          <CharString index="580">
            552.010009765625 43 return
          </CharString>
          <CharString index="581">
            436 callsubr
            1 return
          </CharString>
          <CharString index="582">
            321 callsubr
            hstemhm
            return
          </CharString>
          <CharString index="583">
            168 -23 rlineto
            return
          </CharString>
          <CharString index="584">
            rrcurveto
            111 hlineto
            return
          </CharString>
          <CharString index="585" raw="1">
            740a0513 a3803f07 0b 
          </CharString>
          <CharString index="586">
            -4 callsubr
            132 callsubr
            43 return
          </CharString>
          <CharString index="587">
            hstem
            439 callgsubr
            134 callsubr
            return
          </CharString>
          <CharString index="588">
            194 callsubr
            200 callsubr
            return
          </CharString>
          <CharString index="589">
            hstemhm
            77 callgsubr
            return
          </CharString>
          <CharString index="590">
            301 callgsubr
            -146.989990234375 98 return
          </CharString>
          <CharString index="591">
            141 callsubr
            -35 callgsubr
            return
          </CharString>
          <CharString index="592">
            -24 callgsubr
            rmoveto
            -23 callgsubr
            return
          </CharString>
          <CharString index="593">
            -70 51 379 callsubr
            return
          </CharString>
          <CharString index="594">
            vhcurveto
            -2 13 callgsubr
            return
          </CharString>
          <CharString index="595">
            hvcurveto
            -69 75 rlineto
            -57 -43 -71 return
          </CharString>
          <CharString index="596">
            81 381.989990234375 83 return
          </CharString>
          <CharString index="597">
            -59 -75.99000549316406 vhcurveto
            return
          </CharString>
          <CharString index="598">
            474 callsubr
            2 return
          </CharString>
          <CharString index="599">
            hstem
            69 58 callgsubr
            return
          </CharString>
          <CharString index="600">
            210.97999572753906 return
          </CharString>
          <CharString index="601">
            -439.00999450683594 return
          </CharString>
          <CharString index="602">
            21.020004272460938 return
          </CharString>
          <CharString index="603">
            1521.990005493164 return
          </CharString>
          <CharString index="604">
            534.9900054931641 return
          </CharString>
          <CharString index="605">
            -444.99000549316406 return
          </CharString>
          <CharString index="606">
            -98 91 146 76 return
          </CharString>
          <CharString index="607">
            911.0200042724609 return
          </CharString>
          <CharString index="608">
            168 23 rlineto
            88 return
          </CharString>
          <CharString index="609">
            15.020004272460938 return
          </CharString>
          <CharString index="610">
            111.97999572753906 return
          </CharString>
          <CharString index="611">
            -132.02000427246094 return
          </CharString>
          <CharString index="612">
            19.009994506835938 return
          </CharString>
          <CharString index="613">
            643.0099945068359 return
          </CharString>
          <CharString index="614">
            -88.010009765625 return
          </CharString>
          <CharString index="615">
            322.99000549316406 return
          </CharString>
          <CharString index="616">
            190.99000549316406 return
          </CharString>
          <CharString index="617">
            539.9900054931641 return
          </CharString>
          <CharString index="618">
            -351.99000549316406 return
          </CharString>
          <CharString index="619" raw="1">
            740a0513 a73f070b  
          </CharString>
          <CharString index="620">
            -154 -133 -41 -66.99000549316406 return
          </CharString>
          <CharString index="621">
            500 callsubr
            vlineto
            152 30 rlineto
            return
          </CharString>
          <CharString index="622">
            -1322 vlineto
            return
          </CharString>
          <CharString index="623">
            -755 vlineto
            endchar
          </CharString>
        <CharString name=".notdef">
          447 0 100 callsubr
          906.989990234375 257 hstem
          58 callgsubr
          262 893.989990234375 260.00999450683594 vstem
          58 callgsubr
          1415.990005493164 rmoveto
          -1415.990005493164 1416.009994506836 1415.990005493164 -1416.009994506836 vlineto
          382 -1164 rmoveto
          317 callgsubr
          135 343 317.99000549316406 -344 338 114 116 333 511 callsubr
          328 350.99000549316406 72 callsubr
          -116 -348 457 callsubr
          348 -343 99 callsubr
          -113 -337 353.00999450683594 -324.02000427246094 -353.00999450683594 rlineto
          endchar
        </CharString>
        <CharString name="A">
          -15 callgsubr
          hstemhm
          -23 233 callsubr
          416 callgsubr
          -23 87.97999572753906 -107 callsubr
        </CharString>
        <CharString name="AE">
          -68 callsubr
        </CharString>
        <CharString name="AEacute">
          543 231 callgsubr
          111 338.97999572753906 107 176.510009765625 101.5 379 307.99000549316406 -96.50001525878906 96.5 124.02000427246094 43 hstemhm
          -184.99000549316406 218 callsubr
          537.9799957275391 167 396 322 callsubr
          hintmask 0111011011000000
          823.9900054931641 347 callsubr
          235 416 callsubr
          303 callgsubr
          -6 callsubr
          rcurveline
          167 callgsubr
          444 callgsubr
          rlineto
          501 callgsubr
          -1611.979995727539 rmoveto
          -87 1114.990005493164 vlineto
          77 350.99000549316406 95 callsubr
          172 callsubr
          317 callgsubr
          -256 -627 127 callgsubr
          635 vlineto
          371 -5 233 callgsubr
          -176 rlineto
          322 callsubr
          452 -103.00999450683594 194 callgsubr
          -169 -371 -5.9799957275390625 rlineto
          598 vlineto
          542.9900054931641 213 callsubr
          rlineto
          hintmask 0111101011000000
          62 435 callsubr
          rlineto
          97 hlineto
          hintmask 1011011111000000
          -35 308 rlineto
          -1380 -85 hlineto
          278 405 callsubr
          -588.9799957275391 -1309 -150 134 callgsubr
          rlineto
          hintmask 0111011111000000
          -87 218 callsubr
          vlineto
          hintmask 1011011111000000
          87 vlineto
          -160 19.990005493164062 144 343 rlineto
          554 -344 hlineto
          hintmask 0111011011000000
          -181.99000549316406 134 callgsubr
          rlineto
          -327 470 rmoveto
          -20 callgsubr
          604 113 263 rlineto
          143 -867 -508.99000549316406 hlineto
          endchar
        </CharString>
        <CharString name="Aacute">
          -15 callgsubr
          109.02000427246094 43 hstem
          473 callgsubr
          vstem
          566.9900054931641 49 callgsubr
          138 callgsubr
          -6 callsubr
          rcurveline
          -1 hlineto
          444 callgsubr
          rlineto
          -589.9799957275391 -1611 -107 callsubr
        </CharString>
        <CharString name="Abreve">
          -15 callgsubr
          118 135 hstem
          373.97999572753906 95 465.010009765625 94 vstem
          373.99000549316406 354 callgsubr
          118 -22 callsubr
          -170 -56 103 74 -8 hvcurveto
          -44 callsubr
          85 callsubr
          -396.97999572753906 -1866.020004272461 -107 callsubr
        </CharString>
        <CharString name="Acircumflex">
          -15 callgsubr
          353.010009765625 353 callsubr
          473 callgsubr
          vstem
          504 callgsubr
          417 callgsubr
          68.02000427246094 -43 272 -29 callgsubr
          -384.97999572753906 -1628.020004272461 -107 callsubr
        </CharString>
        <CharString name="Adieresis">
          -69 callsubr
        </CharString>
        <CharString name="Agrave">
          -15 callgsubr
          109.02000427246094 43 hstem
          473 callgsubr
          vstem
          409.99000549316406 334 callgsubr
          0.9900054931640625 16 callsubr
          -432.97999572753906 -1814.020004272461 -107 callsubr
        </CharString>
        <CharString name="Amacron">
          -15 callgsubr
          222 12 callsubr
          hstemhm
          437.97999572753906 510 callsubr
          hintmask 00000000
          hintmask 11111000
          437.99000549316406 50 callgsubr
          -460.97999572753906 -1797.020004272461 -107 callsubr
        </CharString>
        <CharString name="Aogonek">
          65 272 callsubr
          -67 callgsubr
          335.5 106 876 122 hstem
          -23 233 callsubr
          436 161 vstem
          -23 -74 callgsubr
          233 callsubr
          -102 callgsubr
          -181 -21 callgsubr
          64 callsubr
          325 rlineto
          639 hlineto
          109 -326 -180 -68 callgsubr
          203 vlineto
          -143 -61 -118 -145 404 callsubr
          vvcurveto
          -145 266 callgsubr
          -47 124 -93 callsubr
          91.00999450683594 132 callsubr
          43 57 vhcurveto
          86 vlineto
          -24 -47 -59 -17 -53 hhcurveto
          -86 -74 34 97 254 callgsubr
          119 callgsubr
          120 133 58 hvcurveto
          169 -105 callsubr
          hlineto
          -134 19 -511 1430 rlineto
          -168 hlineto
          -510 -1430 170 callsubr
          421.99000549316406 451.00999450683594 rmoveto
          224.99000549316406 675 56.02000427246094 82 callsubr
          57 -194.99000549316406 -8 callsubr
          -681 rlineto
          -567.9900054931641 hlineto
          endchar
        </CharString>
        <CharString name="Aring">
          82 -20 callsubr
          335.5 106 944.0500030517578 -65 callsubr
          407 433 callsubr
          hstemhm
          -23 233 callsubr
          -55.989990234375 127 390 12 callgsubr
          hintmask 11110110
          1297.979995727539 -45 callsubr
          rmoveto
          -506 1417.009994506836 129 233 callgsubr
          5 callgsubr
          433 callgsubr
          -61 callgsubr
          511 callgsubr
          rlinecurve
          237 callgsubr
          -2 -122 75 461 callgsubr
          159 139 callgsubr
          rrcurveto
          hintmask 11111010
          -505 -1416.009994506836 -131.99000549316406 -68 callgsubr
          233 callsubr
          -102 callgsubr
          -181 -21 callgsubr
          64 callsubr
          325 rlineto
          639 hlineto
          109 -326 -180 -68 callgsubr
          500 -102 callgsubr
          hintmask 11110110
          -134 19 rlineto
          -789 1662 rmoveto
          107 74 55 13 callgsubr
          vhcurveto
          412 callsubr
          -1 hlineto
          -138 -59 81 92 hvcurveto
          -110 -1229.990005493164 rmoveto
          224.99000549316406 675 56.02000427246094 82 callsubr
          57 -194.99000549316406 -8 callsubr
          -681 rlineto
          -567.9900054931641 hlineto
          endchar
        </CharString>
        <CharString name="Atilde">
          -15 callgsubr
          168 390 callgsubr
          473 callgsubr
          hintmask 11101100
          541 367 callgsubr
          133 433 callgsubr
          152 callsubr
          95 callsubr
          -117 139 callgsubr
          457 callgsubr
          hintmask 11101100
          -144 -101 219 callgsubr
          -89 -23 hvcurveto
          -24 callgsubr
          -47 rlineto
          40 19 41 91 -4 callgsubr
          hhcurveto
          -563.9900054931641 -1792 -107 callsubr
        </CharString>
        <CharString name="B">
          -71 callsubr
        </CharString>
        <CharString name="C">
          353 callgsubr
          421 callgsubr
          -6 callgsubr
          768 rmoveto
          -475.02000427246094 251 -315.97999572753906 447 245 76 -6 callgsubr
          5 -53 callgsubr
          vhcurveto
          49.99000549316406 273 -102 callsubr
          hvcurveto
          endchar
        </CharString>
        <CharString name="CR">
          -1323 endchar
        </CharString>
        <CharString name="Cacute">
          353 callgsubr
          108.02000427246094 43 421 callgsubr
          647.9900054931641 70 callsubr
          56.02000427246094 128 callgsubr
          427 callgsubr
          93 39 235 416 callsubr
          138 callgsubr
          -6 callsubr
          rcurveline
          -1 hlineto
          444 callgsubr
          rlineto
          -574 -930.9799957275391 rmoveto
          -475.02000427246094 251 -315.97999572753906 447 245 76 -6 callgsubr
          5 -53 callgsubr
          vhcurveto
          49.99000549316406 273 -102 callsubr
          hvcurveto
          endchar
        </CharString>
        <CharString name="Ccaron">
          353 callgsubr
          154.010009765625 115 421 callgsubr
          459.97999572753906 15 callsubr
          -385.99000549316406 -1198.979995727539 rmoveto
          -475.02000427246094 251 -315.97999572753906 447 245 76 -6 callgsubr
          5 -53 callgsubr
          vhcurveto
          49.99000549316406 273 -102 callsubr
          hvcurveto
          endchar
        </CharString>
        <CharString name="Ccedilla">
          -67 callsubr
        </CharString>
        <CharString name="Ccircumflex">
          353 callgsubr
          352.010009765625 123.99000549316406 421 callgsubr
          442.97999572753906 417 callgsubr
          68.02000427246094 -43 272 -29 callgsubr
          -368.99000549316406 -948 rmoveto
          -475.02000427246094 251 -315.97999572753906 447 245 76 -6 callgsubr
          5 -53 callgsubr
          vhcurveto
          49.99000549316406 273 -102 callsubr
          hvcurveto
          endchar
        </CharString>
        <CharString name="Cdotaccent">
          353 callgsubr
          175 252 hstem
          -6 callgsubr
          193 403.989990234375 228 vstem
          670.9900054931641 197 callsubr
          -38 61 -70 hvcurveto
          -1 hlineto
          64 callgsubr
          -39 -19 callgsubr
          -69 hvcurveto
          -597 -1060.990005493164 rmoveto
          -475.02000427246094 251 -315.97999572753906 447 245 76 -6 callgsubr
          5 -53 callgsubr
          vhcurveto
          49.99000549316406 273 -102 callsubr
          hvcurveto
          endchar
        </CharString>
        <CharString name="D">
          225 -9 callsubr
          1342.5 241 callgsubr
          hintmask 00000000
          hintmask 01011100
          -40 callgsubr
          87.97999572753906 27 callgsubr
          hintmask 10011100
          -28 callgsubr
          hintmask 01101100
          34 callgsubr
          -1304 vlineto
          hintmask 01011100
          -176 -19 rlineto
          hintmask 10011100
          345 12 rmoveto
          1327 -94 callsubr
          endchar
        </CharString>
        <CharString name="Dcaron">
          225 -9 callsubr
          1342.5 82 -82 98 154.010009765625 115 -28 callsubr
          846.989990234375 181 hintmask 10011110
          471.97999572753906 15 callsubr
          hintmask 01011110
          -369.99000549316406 -1879 27 callgsubr
          hintmask 10011110
          -28 callgsubr
          hintmask 01101110
          34 callgsubr
          -1304 vlineto
          hintmask 01011110
          -176 -19 rlineto
          hintmask 10011110
          345 12 rmoveto
          1327 -94 callsubr
          endchar
        </CharString>
        <CharString name="Dcroat">
          225 -9 callsubr
          631.5 106 605 241 callgsubr
          hintmask 10101110
          189 callgsubr
          834.9900054931641 rmoveto
          -106 158 vlineto
          hintmask 01101110
          -622 vlineto
          -176 -19 rlineto
          33 callgsubr
          hintmask 10101110
          -28 callgsubr
          hintmask 10110110
          34 callgsubr
          -576 vlineto
          hintmask 10101110
          -158 hlineto
          327 hmoveto
          591.9900054931641 -94 callsubr
          629 385 106 -385 vlineto
          endchar
        </CharString>
        <CharString name="E">
          7 -70 callgsubr
          228 callsubr
          hintmask 01111100
          102.99000549316406 87.97999572753906 -55 callsubr
          36 callsubr
          -101 callsubr
          hintmask 10111100
          215 callgsubr
          hintmask 01111100
          256 callsubr
          endchar
        </CharString>
        <CharString name="Eacute">
          -72 callsubr
          124.01998901367188 43 182 callsubr
          560.9900054931641 49 callgsubr
          138 callgsubr
          -6 callsubr
          rcurveline
          -1 hlineto
          444 callgsubr
          rlineto
          -458 -1611 -55 callsubr
          36 callsubr
          -101 callsubr
          hintmask 10111110
          215 callgsubr
          hintmask 01111110
          256 callsubr
          endchar
        </CharString>
        <CharString name="Ebreve">
          -72 callsubr
          132.99998474121094 135 -28 callsubr
          -79.010009765625 95 386.010009765625 104 -25.010009765625 94 hintmask 0000000000000000
          hintmask 0111101010000000
          367.97999572753906 354 callgsubr
          118.00999450683594 -22 callsubr
          -170 -56 103 74 -8 hvcurveto
          -44 callsubr
          85 callsubr
          -264.99000549316406 -1866.020004272461 -55 callsubr
          rlineto
          hintmask 0111110100000000
          36 callsubr
          -101 callsubr
          hintmask 1011110100000000
          215 callgsubr
          hintmask 0111101010000000
          256 callsubr
          endchar
        </CharString>
        <CharString name="Ecaron">
          -72 callsubr
          405 callgsubr
          115 182 callsubr
          372.97999572753906 15 callsubr
          -269.99000549316406 -1879 -55 callsubr
          36 callsubr
          -101 callsubr
          hintmask 10111110
          215 callgsubr
          hintmask 01111110
          256 callsubr
          endchar
        </CharString>
        <CharString name="Ecircumflex">
          7 -70 callgsubr
          368.00999450683594 109 callgsubr
          182 callsubr
          354.97999572753906 417 callgsubr
          68.02000427246094 -43 272 -29 callgsubr
          -251.99000549316406 -1628.020004272461 -55 callsubr
          36 callsubr
          -101 callsubr
          hintmask 10111110
          215 callgsubr
          hintmask 01111110
          256 callsubr
          endchar
        </CharString>
        <CharString name="Edieresis">
          -73 callsubr
        </CharString>
        <CharString name="Edotaccent">
          -72 callsubr
          190.99998474121094 252 -28 callsubr
          136.989990234375 228 37.010009765625 104 hintmask 00000000
          hintmask 01111111
          583.9900054931641 197 callsubr
          -38 61 364 callsubr
          hvcurveto
          -1 hlineto
          64 callgsubr
          -39 -19 callgsubr
          -69 hvcurveto
          -481 -1741 -55 callsubr
          36 callsubr
          hintmask 10110101
          -101 callsubr
          -1304 vlineto
          hintmask 01111111
          256 callsubr
          endchar
        </CharString>
        <CharString name="Egrave">
          -72 callsubr
          124.01998901367188 43 182 callsubr
          371 425 callsubr
          131 callgsubr
          -128 94 -39 rrcurveto
          1 16 callsubr
          -268 -1814.020004272461 -55 callsubr
          36 callsubr
          -101 callsubr
          hintmask 10111110
          215 callgsubr
          hintmask 01111110
          256 callsubr
          endchar
        </CharString>
        <CharString name="Emacron">
          -72 callsubr
          236.99998474121094 12 callsubr
          -28 callsubr
          -15.010009765625 510 callsubr
          -122.97999572753906 104 hintmask 00000000
          hintmask 01111010
          431.97999572753906 50 callgsubr
          -328.99000549316406 -1797.020004272461 -55 callsubr
          rlineto
          hintmask 01111101
          36 callsubr
          -101 callsubr
          hintmask 10111101
          215 callgsubr
          hintmask 01111010
          256 callsubr
          endchar
        </CharString>
        <CharString name="Eng">
          283 -17 callsubr
          1326.509994506836 321 callsubr
          hstem
          279.97999572753906 119 889 118 vstem
          116.97999572753906 87 rmoveto
          -87 366 callgsubr
          87 vlineto
          -187 19.990005493164062 rlineto
          1234 vlineto
          158 -287 673 -1026.990005493164 -12 235 callgsubr
          -19 -39 189 callsubr
          -36 rlinecurve
          -68 -97 -106 -63.02000427246094 -130 -29 44 264 callsubr
          rcurveline
          134.99000549316406 15 117 44 115.02000427246094 128 rrcurveto
          162 callsubr
          82 54 -53 callgsubr
          316.99000549316406 vvcurveto
          1066 vlineto
          167 23 rlineto
          87 -458 -87 vlineto
          173 -23 rlineto
          -1218 vlineto
          -155 277.00999450683594 -680 1051 rlineto
          -336.02000427246094 -87 hlineto
          163 -24 rlineto
          215 callgsubr
          -163 114 callgsubr
          rlineto
          endchar
        </CharString>
        <CharString name="Eogonek">
          8 272 callsubr
          -85 callsubr
          -28 callsubr
          285 98 callsubr
          379 callsubr
          104 hintmask 10111101
          191 callsubr
          918 vlineto
          hintmask 10111110
          320 callgsubr
          -61 -134 -144 99 callsubr
          160 callsubr
          -74 34 97 95 155 143 136 26 hvcurveto
          27 hlineto
          63 345.99000549316406 -97 31.009994506835938 -104 -256 36 callsubr
          hintmask 11011101
          -101 callsubr
          -1304 vlineto
          hintmask 10111101
          256 callsubr
          endchar
        </CharString>
        <CharString name="Eth">
          225 -9 callsubr
          650.510009765625 93 598.989990234375 241 callgsubr
          hintmask 10101110
          121 840.9900054931641 rmoveto
          -93 157 vlineto
          hintmask 01101110
          -641 vlineto
          -176 -19 rlineto
          33 callgsubr
          hintmask 10101110
          -28 callgsubr
          hintmask 10110110
          34 callgsubr
          -570 vlineto
          hintmask 10101110
          -157 hlineto
          326 hmoveto
          585.9900054931641 -94 callsubr
          648.0099945068359 385 93 -385 vlineto
          endchar
        </CharString>
        <CharString name="Euro">
          228 -28 92 190 callgsubr
          105 266.989990234375 105 437.010009765625 -40 callgsubr
          hstem
          508 callsubr
          176 vstem
          92 654.9900054931641 rmoveto
          -105 338 callsubr
          vlineto
          -350 46 194 -227.97999572753906 355 hhcurveto
          262 98 92 129 callsubr
          86 hvcurveto
          130 callgsubr
          239 -93 18 -53 -163 rlineto
          -56.02000427246094 -75 64 callgsubr
          -41.97999572753906 -127 hhcurveto
          -297 -124.00999450683594 199.99000549316406 286 -35.97999572753906 hvcurveto
          551 105 -560 hlineto
          -27 callgsubr
          34 -1 35 36 vvcurveto
          57 -17 callgsubr
          54 5 51 vhcurveto
          586.0200042724609 105 -570 hlineto
          278 57 101 callgsubr
          159 238 hhcurveto
          134 111 -31 -39 42 hvcurveto
          32 -223 rlineto
          250 callgsubr
          hlineto
          16.020004272460938 323.02000427246094 rlineto
          18 64 callgsubr
          -124.99000549316406 6 callgsubr
          -178 hhcurveto
          -334 -239 -202 -337 -86 hvcurveto
          -244 -105 222 hlineto
          11 callsubr
          286 callsubr
          -5 188 callgsubr
          -69 vvcurveto
          -24 0 -23 1 -23 vhcurveto
          -232 hlineto
          endchar
        </CharString>
        <CharString name="F">
          -59 -20 callsubr
          620.5 106 361.010009765625 336.99000549316406 -99.49000549316406 99.49000549316406 -28 callsubr
          443 119 callgsubr
          hintmask 11011100
          180 callgsubr
          -74 callgsubr
          656.0200042724609 -102 callgsubr
          -320 19 rlineto
          615 vlineto
          408.99000549316406 137 callgsubr
          252 callgsubr
          -173 rlineto
          119 callgsubr
          453 323 callgsubr
          hlineto
          -34.02000427246094 -167.02000427246094 -408.99000549316406 -6 rlineto
          606 vlineto
          577 -37 callgsubr
          rlineto
          hintmask 11101100
          -1 callsubr
          -233 rlineto
          112 hlineto
          hintmask 11011100
          237 callsubr
        </CharString>
        <CharString name="G">
          188 -23 66 callsubr
          371 callgsubr
          98.97999572753906 735.9900054931641 -27 callsubr
        </CharString>
        <CharString name="Gbreve">
          191 -23 66 callsubr
          117 135 hstemhm
          -40 callgsubr
          192 199 119 callgsubr
          465.00999450683594 282 callsubr
          29.009994506835938 172 hintmask 11111101
          492.99000549316406 354 callgsubr
          221 callgsubr
          -130 212 vhcurveto
          hintmask 11111111
          203 121 131 168.97999572753906 -18 callsubr
          0 12 -27 callgsubr
          -18 callsubr
          hvcurveto
          108 callsubr
          hlineto
          -6 0 11 callsubr
          -27 callgsubr
          -12 vhcurveto
          146 callsubr
          -6 -53 -104 -169 hhcurveto
          -170 -56 103 74 -8 hvcurveto
          -3 12 0 87 callsubr
          6 vvcurveto
          -93 hlineto
          hintmask 11111101
          -27 callgsubr
          138 callsubr
          0 -13 99 callgsubr
          vvcurveto
          -391 -1218.009994506836 -31 callgsubr
        </CharString>
        <CharString name="Gcircumflex">
          188 -23 66 callsubr
          352.010009765625 123.99000549316406 371 callgsubr
          478.99000549316406 417 callgsubr
          67.99000549316406 -43 358 callgsubr
          217 265.99000549316406 -217 75 45 -264.99000549316406 296 rlineto
          -154 hlineto
          -262 -297.97999572753906 rlineto
          -380.00999450683594 -980.0099945068359 -27 callsubr
        </CharString>
        <CharString name="Gcommaaccent">
          196 4 callgsubr
          452.99000549316406 66 callsubr
          hstemhm
          285 callgsubr
          192 491.010009765625 141 250 280 callgsubr
          hintmask 01111101
          285 callgsubr
          735.9900054931641 rmoveto
          -432 260.02000427246094 -326.97999572753906 443.99000549316406 274 160 158 callsubr
          5 -53 callgsubr
          vhcurveto
          554 vlineto
          126 390 callsubr
          -53 callgsubr
          -581.9799957275391 -107.99000549316406 vlineto
          284 300 callgsubr
          rlineto
          -466 vlineto
          -57 -73.02000427246094 -139 -37 -145 hhcurveto
          -357.99000549316406 -167.02000427246094 352.00999450683594 361 431 240 220 316.00999450683594 193 -4 callsubr
          -46 -23 31 hvcurveto
          45 -237 rlineto
          64 callsubr
          449 callsubr
          -211 hhcurveto
          -426.99000549316406 -340.00999450683594 -287.99000549316406 -514.0099945068359 hvcurveto
          hintmask 10111111
          670 -1292.979995727539 125 callgsubr
          -50.02000427246094 59 146 callsubr
          vhcurveto
          -9 hlineto
          -25 -66 23 callgsubr
          19 -18 82 callgsubr
          -58 callgsubr
          hvcurveto
          hintmask 01111111
          495 callsubr
          -55 callgsubr
          hintmask 10111111
          6 callgsubr
          122 callsubr
        </CharString>
        <CharString name="Gdotaccent">
          191 -23 66 callsubr
          175 252 hstem
          -40 callgsubr
          192 415 131 callsubr
          239.00999450683594 172 vstem
          709 16 callgsubr
          -607 -1093 -31 callgsubr
        </CharString>
        <CharString name="H">
          176 callgsubr
          hstem
          313 callsubr
          vstem
          110 87.97999572753906 -51 callsubr
        </CharString>
        <CharString name="Hbar">
          365 0 98 95 callsubr
          356 callsubr
          546.0000152587891 106 303.989990234375 94 286.510009765625 100.5 hstemhm
          94 callgsubr
          137 callsubr
          786.0099945068359 137 callsubr
          hintmask 10111110
          49.99000549316406 391 callgsubr
          -94 234 -935 vlineto
          -174 -18 rlineto
          94 callsubr
          519.9900054931641 147 callsubr
          vlineto
          -179 18 rlineto
          525 786 vlineto
          hintmask 01111110
          -522 vlineto
          -171 -24 rlineto
          -85.02000427246094 506 145 callsubr
          vlineto
          -168 24 rlineto
          931.9900054931641 234 94 -234 275.00999450683594 vlineto
          168 23 rlineto
          431 callgsubr
          -506 -89.00999450683594 vlineto
          369 callsubr
          -275.00999450683594 -786 275.00999450683594 426 callgsubr
          23 rlineto
          431 callgsubr
          -512.9900054931641 -89.00999450683594 vlineto
          476 callsubr
          -275.00999450683594 vlineto
          hintmask 10111110
          -234 hlineto
          1187 -397.99000549316406 rmoveto
          -786 303.97999572753906 786 -303.97999572753906 hlineto
          endchar
        </CharString>
        <CharString name="Hcircumflex">
          176 callgsubr
          368 353 callsubr
          313 callsubr
          vstem
          502.99000549316406 417 callgsubr
          68 -43 358 callgsubr
          -29 callgsubr
          -392.99000549316406 -1628.020004272461 -51 callsubr
        </CharString>
        <CharString name="I">
          3 callsubr
          420 callsubr
          135 callgsubr
          endchar
        </CharString>
        <CharString name="I.uc">
          -7 callgsubr
        </CharString>
        <CharString name="IJ">
          258 -17 callsubr
          1324.989990234375 100 336 callsubr
          634.010009765625 170 vstem
          135 callgsubr
          688.9900054931641 -368.99000549316406 rmoveto
          45 -22 callgsubr
          177 33 194 129 47 131 callgsubr
          rlinecurve
          233 callgsubr
          126 -44 callsubr
          167 227 vvcurveto
          846.9900054931641 vlineto
          194.99000549316406 24 rlineto
          88 -570 -88 vlineto
          205 -24 rlineto
          -892 vlineto
          -306 -5 -113.00999450683594 -37 -116.97999572753906 vhcurveto
          201 callgsubr
          -138 253 callgsubr
          -92 -122 426 callsubr
          endchar
        </CharString>
        <CharString name="IJ_acutecomb">
          258 -17 callsubr
          1324.989990234375 100 124.02000427246094 43 336 callsubr
          634.010009765625 170 vstem
          612.9900054931641 2007.979995727539 rmoveto
          444 callgsubr
          38 callgsubr
          -490.99000549316406 -574 rmoveto
          199.99000549316406 7 callgsubr
          -199.99000549316406 -68 callgsubr
          569 87 vlineto
          -199 19.990005493164062 rlineto
          287 callgsubr
          199 22 rlineto
          88 -569 -88 vlineto
          1368.990005493164 hmoveto
          88 -570 -88 vlineto
          205 -24 rlineto
          -892 vlineto
          -306 -5 -113.00999450683594 -37 -116.97999572753906 vhcurveto
          201 callgsubr
          -138 253 callgsubr
          -92 -122 188 callsubr
          45 -22 callgsubr
          rcurveline
          177 33 194 129 47 131 callgsubr
          rrcurveto
          233 callgsubr
          126 -44 callsubr
          167 227 vvcurveto
          846.9900054931641 vlineto
          194.99000549316406 24 rlineto
          endchar
        </CharString>
        <CharString name="Iacute">
          292 callgsubr
          273.97999572753906 1698.979995727539 rmoveto
          38 callgsubr
          444 callgsubr
          rlineto
          -151.99000549316406 -1611 -96 callsubr
          endchar
        </CharString>
        <CharString name="Ibreve">
          3 callsubr
          132.989990234375 135 hstem
          81 119 callgsubr
          145.989990234375 170 149 94 vstem
          81 181 callsubr
          -90 hlineto
          -6 0 11 callsubr
          -2 -12 vhcurveto
          146 callsubr
          -6 -53 -104 -168.99000549316406 hhcurveto
          -170 -56.02000427246094 452 callsubr
          458 callgsubr
          12 0 87 callsubr
          6 vvcurveto
          -93 hlineto
          -27 callgsubr
          138 callsubr
          0 -13 99 callgsubr
          vvcurveto
          41 -1866.020004272461 -96 callsubr
          endchar
        </CharString>
        <CharString name="Icircumflex">
          3 callsubr
          368 123.99000549316406 420 callsubr
          69 417 callgsubr
          68 -43 272 217 265.99000549316406 -217 319 callgsubr
          45 -265.00999450683594 296 rlineto
          202 callgsubr
          hlineto
          -262 -297.97999572753906 rlineto
          53 -1628.020004272461 -96 callsubr
          endchar
        </CharString>
        <CharString name="Idieresis">
          3 callsubr
          186 152 callgsubr
          hintmask 00000000
          hintmask 11111100
          -57 callsubr
          hintmask 11001000
          569 87 hlineto
          -95 callsubr
          hintmask 11111100
          374 callgsubr
        </CharString>
        <CharString name="Idotaccent">
          -7 callgsubr
        </CharString>
        <CharString name="Igrave">
          292 callgsubr
          116.97999572753906 477 callgsubr
          377 callsubr
          -89 131 callgsubr
          205 callsubr
          263 callgsubr
          -1814.020004272461 -96 callsubr
          endchar
        </CharString>
        <CharString name="Imacron">
          3 callsubr
          236.989990234375 12 callsubr
          420 callsubr
          145 50 callgsubr
          -23 -1797.020004272461 -96 callsubr
          endchar
        </CharString>
        <CharString name="Iogonek">
          -509 272 callsubr
          -67 callgsubr
          1325.510009765625 99 hstemhm
          115 98 callsubr
          44.989990234375 170 hintmask 11101000
          122 -74 callgsubr
          262 vlineto
          hintmask 11111000
          -134 -61 -135 -145 404 callsubr
          vvcurveto
          -145 109 callgsubr
          -47 13 callgsubr
          411 callgsubr
          58 vhcurveto
          86 vlineto
          -24 -48 -59 -17 -52.99000549316406 hhcurveto
          -85.00999450683594 -74 34 97 254 callgsubr
          -53 callgsubr
          120 128 58 hvcurveto
          hintmask 11101000
          438 callsubr
          87 hlineto
          -87 callsubr
          endchar
        </CharString>
        <CharString name="Itilde">
          3 callsubr
          182.989990234375 390 callgsubr
          261 callgsubr
          hintmask 11011000
          247.99000549316406 1879.979995727539 rmoveto
          126 32 -175 163 hhcurveto
          hintmask 11111000
          133 80 5 callgsubr
          105 33 hvcurveto
          -85 48 rlineto
          -41 -19 286 callgsubr
          -91.02000427246094 -97 -117 -25 457 callgsubr
          hintmask 11011000
          -143.99000549316406 129 callgsubr
          219 callgsubr
          -89 -23 hvcurveto
          145 callsubr
          -47 rlineto
          40 147 callgsubr
          41 91 -4 callgsubr
          hhcurveto
          -126 -1792 -96 callsubr
          endchar
        </CharString>
        <CharString name="J">
          -556 1421.979995727539 100 451 callgsubr
          vstem
          -44 callsubr
          -281 -86 callsubr
          endchar
        </CharString>
        <CharString name="Jcircumflex">
          -556 1421.979995727539 100 368.010009765625 123.99000549316406 451 callgsubr
          vstem
          48.99000549316406 417 callgsubr
          68 -43 358 callgsubr
          -29 callgsubr
          -51.97999572753906 -1997 -86 callsubr
          endchar
        </CharString>
        <CharString name="K">
          140 128 callsubr
          1326.5 427 callsubr
          117 callsubr
          466.989990234375 474 vstem
          -13 callgsubr
          endchar
        </CharString>
        <CharString name="Kcommaaccent">
          140 4 callgsubr
          475.99000549316406 -78 callgsubr
          1326.5 99.49000549316406 108 callgsubr
          332.989990234375 141 -7 474 hintmask 01111010
          -13 callgsubr
          hintmask 10111100
          -442 -556.9900054931641 80 callsubr
          187 callgsubr
          452 callgsubr
          360 callgsubr
          23 callgsubr
          147 callgsubr
          -18 130 callgsubr
          -58 callgsubr
          hvcurveto
          hintmask 01111100
          21 -55 callgsubr
          hintmask 10111100
          54 122 callsubr
        </CharString>
        <CharString name="L">
          -30 0 53 callgsubr
          hintmask 01110000
          -12 callgsubr
          87.97999572753906 -49 callsubr
          hintmask 10110000
          215 callgsubr
          hintmask 01110000
          256 callsubr
          endchar
        </CharString>
        <CharString name="Lacute">
          -30 0 125 callsubr
          266 callgsubr
          43 108 callgsubr
          hintmask 01111000
          367.97999572753906 70 callsubr
          56.02000427246094 128 callgsubr
          156 callsubr
          93 39 235 416 callsubr
          -114 -6 callsubr
          rcurveline
          -1 hlineto
          -339.00999450683594 -309 rlineto
          -258.99000549316406 -1611 -49 callsubr
          hintmask 10111000
          215 callgsubr
          hintmask 01111000
          256 callsubr
          endchar
        </CharString>
        <CharString name="Lcaron">
          -30 0 53 callgsubr
          520.989990234375 149.99000549316406 hintmask 01111000
          936 293 callgsubr
          6 callgsubr
          386 callsubr
          71 callsubr
          150 callsubr
          -827 -986.0099945068359 -49 callsubr
          hintmask 10111000
          215 callgsubr
          hintmask 01111000
          256 callsubr
          endchar
        </CharString>
        <CharString name="Lcommaaccent">
          -30 4 callgsubr
          475.99000549316406 53 callgsubr
          233.989990234375 141 hintmask 01011100
          -12 callgsubr
          87.97999572753906 -49 callsubr
          hintmask 01101100
          215 callgsubr
          hintmask 01011100
          256 callsubr
          hintmask 10011110
          565 -644.9700012207031 80 callsubr
          146 callsubr
          vhcurveto
          213 callsubr
          hlineto
          -25 360 callgsubr
          23 callgsubr
          147 callgsubr
          -18 130 callgsubr
          -58 callgsubr
          hvcurveto
          hintmask 01011110
          21 -55 callgsubr
          hintmask 10011110
          54 122 callsubr
        </CharString>
        <CharString name="Ldot">
          -30 230 callgsubr
          114.5 594.4900054931641 408 callgsubr
          464.00999450683594 99 108 callgsubr
          398.989990234375 324 callgsubr
          hintmask 01011000
          -12 callgsubr
          87.97999572753906 -49 callsubr
          hintmask 10011000
          215 callgsubr
          hintmask 01011000
          256 callsubr
          hintmask 01111100
          743 736.0099945068359 223 callgsubr
        </CharString>
        <CharString name="Lslash">
          -27 0 53 callgsubr
          hintmask 01110000
          52 635.9900054931641 rmoveto
          -104 vlineto
          232 133 callgsubr
          rlineto
          hintmask 10110000
          -526.0099945068359 vlineto
          256 callsubr
          hintmask 01110000
          -105 callgsubr
          1065 vlineto
          75 381 callgsubr
          -98 17 -115.02000427246094 -320.97999572753906 -582.9900054931641 226 callgsubr
          595 vlineto
          427.99000549316406 72 callgsubr
          rlineto
          111 vlineto
          -427.99000549316406 -192 rlineto
          602.0099945068359 74 callgsubr
          -672.0200042724609 vlineto
          -232 -102.99000549316406 rlineto
          endchar
        </CharString>
        <CharString name="M">
          -43 callgsubr
        </CharString>
        <CharString name="N">
          309 192 callsubr
          hstem
          178 callgsubr
          vstem
          115 87.97999572753906 -64 callgsubr
        </CharString>
        <CharString name="NULL">
          -1323 endchar
        </CharString>
        <CharString name="Nacute">
          311 192 callsubr
          124.01998901367188 43 hstem
          178 callgsubr
          vstem
          719.9900054931641 49 callgsubr
          360 callsubr
          193 callgsubr
          -605 -1611 -64 callgsubr
        </CharString>
        <CharString name="Ncaron">
          311 192 callsubr
          405 callgsubr
          115 hstem
          178 callgsubr
          472 callgsubr
          15 callsubr
          -420.99000549316406 -1879 -64 callgsubr
        </CharString>
        <CharString name="Ncommaaccent">
          311 4 callgsubr
          475.99000549316406 -67 callgsubr
          1325.010009765625 99.49000549316406 hstemhm
          396 callsubr
          446.00999450683594 459 callsubr
          302.00999450683594 119 hintmask 01111010
          115 87.97999572753906 37 callgsubr
          hintmask 10111110
          715 -644.9700012207031 rmoveto
          22 89 callgsubr
          112 callgsubr
          59 -74 vhcurveto
          213 callsubr
          194 callgsubr
          -66 23 callgsubr
          19 -18 82 callgsubr
          -58 callgsubr
          hvcurveto
          hintmask 01111110
          215 callsubr
          hintmask 10111110
          54 122 callsubr
        </CharString>
        <CharString name="Ntilde">
          311 192 callsubr
          182.99998474121094 123 52 123 hstemhm
          178 callgsubr
          hintmask 11011100
          657 367 callgsubr
          133.02000427246094 80 5 callgsubr
          105 33 298 callsubr
          48 rlineto
          -41 -19.009994506835938 286 callgsubr
          -91.02000427246094 95 callsubr
          -117 139 callgsubr
          457 callgsubr
          hintmask 11011100
          -144 129 callgsubr
          219 callgsubr
          -89 -23 hvcurveto
          85 -47 rlineto
          40 19 41 91 -4 callgsubr
          hhcurveto
          -542 -1792 -64 callgsubr
        </CharString>
        <CharString name="O">
          -23 -81 callgsubr
          1368 -78 callgsubr
          164 callgsubr
          75 461 callsubr
          -103 callsubr
        </CharString>
        <CharString name="OE">
          780 -12 callsubr
          119 callgsubr
          -79 110 624.4900054931641 101.5 583 -18 callgsubr
          -69.99000549316406 94 hstemhm
          75 342 callsubr
          776 -57 callgsubr
          404.99998474121094 104.00999450683594 hintmask 01110111
          1035 hmoveto
          937.9900054931641 hlineto
          157 callgsubr
          349.97999572753906 -97 27.020004272460938 163 callgsubr
          -257 -634 127 callgsubr
          637.0099945068359 vlineto
          380 -5 233 callgsubr
          -177 rlineto
          104.02000427246094 452 456 callgsubr
          194 callgsubr
          -168 -380 -6 rlineto
          591.0099945068359 vlineto
          550.0099945068359 -10.009994506835938 2 callgsubr
          -198.99000549316406 rlineto
          97 hlineto
          -29 307 rlineto
          -838.9900054931641 hlineto
          hintmask 10101111
          -31.009994506835938 vlineto
          -81 38.02000427246094 322 callgsubr
          147 callgsubr
          -103 -27 callgsubr
          rrcurveto
          -378 -8 -305.99000549316406 -304 -483 vvcurveto
          -458 465 callgsubr
          -317.99000549316406 414 500 callgsubr
          vhcurveto
          110 -17 callgsubr
          103 132 callsubr
          92.02000427246094 52 rrcurveto
          hintmask 01110111
          360 callgsubr
          vlineto
          hintmask 10101111
          197 vmoveto
          -77 159 callsubr
          -98 -41 -123 hhcurveto
          -308 1 -174 303 503 callgsubr
          vvcurveto
          450.00999450683594 193 250 460 callsubr
          134 148 callsubr
          -41 -62 65 vhcurveto
          -1152 vlineto
          endchar
        </CharString>
        <CharString name="Oacute">
          -23 -81 callgsubr
          1368 -78 callgsubr
          108.01998901367188 43 164 callgsubr
          605 1698.979995727539 rmoveto
          38 callgsubr
          -338.99000549316406 -309 rlineto
          -530 -949.9900054931641 -103 callsubr
        </CharString>
        <CharString name="Obreve">
          -23 -81 callgsubr
          1368 -78 callgsubr
          116.99998474121094 135 hstem
          75 186.97999572753906 150.010009765625 119 callgsubr
          464.99998474121094 94 143.010009765625 72 callgsubr
          vstem
          412 181 callsubr
          108 callsubr
          hlineto
          -6 0 11 callsubr
          -2 -12 vhcurveto
          146 callsubr
          -6 -52.99000549316406 -104 -169 hhcurveto
          -170 -56 452 callsubr
          -3 12 0 87 callsubr
          6 vvcurveto
          -93 hlineto
          -27 callgsubr
          138 callsubr
          0 -13 99 callgsubr
          vvcurveto
          -337 -1205 -103 callsubr
        </CharString>
        <CharString name="Ocircumflex">
          -23 -81 callgsubr
          1368 -78 callgsubr
          352.00999450683594 123.99000549316406 164 callgsubr
          399.99000549316406 417 callgsubr
          68 -43 272 217 266.02000427246094 -217 75 45 -265.02000427246094 296 rlineto
          202 callgsubr
          hlineto
          -262 -297.97999572753906 rlineto
          -325 -967 -103 callsubr
        </CharString>
        <CharString name="Odieresis">
          -23 -81 callgsubr
          1368 -78 callgsubr
          397 callgsubr
          hstem
          75 186.97999572753906 123 422 callgsubr
          228 110 72 callgsubr
          vstem
          384.97999572753906 69 callsubr
          86 callsubr
          -53 64 vhcurveto
          156 callsubr
          83 103 callsubr
          65 callgsubr
          -84 callgsubr
          105 callgsubr
          40.02000427246094 -25 callsubr
          -796 -1076 -103 callsubr
        </CharString>
        <CharString name="Ograve">
          -23 -81 callgsubr
          1368 -78 callgsubr
          108.01998901367188 43 164 callgsubr
          448 425 callsubr
          131 callgsubr
          393 callsubr
          -337.99000549316406 309 rlineto
          -1 hlineto
          -115 -105.99000549316406 rlineto
          -373 -1153 -103 callsubr
        </CharString>
        <CharString name="Ohungarumlaut">
          -23 -81 callgsubr
          1368 -78 callgsubr
          118.01998901367188 43 164 callgsubr
          379.99000549316406 470 callsubr
          72 291 callgsubr
          -271.00999450683594 -294.00999450683594 rlineto
          485 2 rmoveto
          162 callsubr
          -64 99 58 142 101 -66 callsubr
          250 callgsubr
          rlinecurve
          -106 99 -291 -287.99000549316406 rlineto
          -790 -971 -103 callsubr
        </CharString>
        <CharString name="Omacron">
          -23 -81 callgsubr
          1368 -78 callgsubr
          220.99998474121094 12 callsubr
          hstem
          75 186.97999572753906 214.010009765625 510 callsubr
          193.00999450683594 72 callgsubr
          vstem
          476 50 callgsubr
          -401 -1136 -103 callsubr
        </CharString>
        <CharString name="Oslash">
          151 -23 -81 callgsubr
          1368 -78 callgsubr
          hstem
          75.97999572753906 187 947.010009765625 72 callgsubr
          vstem
          325 -177 rmoveto
          78.99000549316406 189 callsubr
          148 callsubr
          213.99000549316406 69 -23 76 -12 -93 callsubr
          1 rlinecurve
          378 7 298 307.9700012207031 483 vvcurveto
          333 -119.99000549316406 251 -224 284 callgsubr
          vhcurveto
          -66 callsubr
          205.99000549316406 -79.02000427246094 29 113 callsubr
          -204 rlineto
          23 -19 callgsubr
          -74 12 -82 hhcurveto
          -379.99000549316406 -302.02000427246094 -306 -483 -332 283 callsubr
          -258 222.99000549316406 -116 hvcurveto
          -93.97999572753906 -219.99000549316406 rlineto
          -62.02000427246094 927 rmoveto
          464 194 228 284 72 65 -71 callgsubr
          11 callgsubr
          56 vhcurveto
          -461 -1229 rlineto
          -137 114 159 callsubr
          211 258 vvcurveto
          740 599.9900054931641 rmoveto
          134 404 callsubr
          73.00999450683594 -207.02000427246094 -257 vvcurveto
          -464 -194 -236 -281 -22 callgsubr
          -65 16 31.009994506835938 -57 vhcurveto
          462.99000549316406 1228.990005493164 rlineto
          endchar
        </CharString>
        <CharString name="Otilde">
          -23 -81 callgsubr
          1368 -78 callgsubr
          166.99998474121094 390 callgsubr
          75 33 callsubr
          hintmask 11011100
          232 callgsubr
          259 callsubr
          hintmask 11111100
          133 80 5 callgsubr
          105 33 hvcurveto
          -85.00999450683594 48 rlineto
          -41 -19 -33 -91.02000427246094 -97 -117 -25 457 callgsubr
          hintmask 11011100
          -144 -101 219 callgsubr
          -89 -23 hvcurveto
          356 callsubr
          -47 rlineto
          40 19 40.97999572753906 91 96.02000427246094 hhcurveto
          -504 -1130.990005493164 -103 callsubr
        </CharString>
        <CharString name="P">
          -50 callsubr
        </CharString>
        <CharString name="Q">
          162 -412.99000549316406 323 callsubr
          247 -81 callgsubr
          -80.99000549316406 43 1405.990005493164 -78 callgsubr
          hstemhm
          81 33 callsubr
          hintmask 11011100
          81 461 callsubr
          30 callsubr
          219 callsubr
          7 vhcurveto
          hintmask 10111100
          45.02000427246094 1 45 5 43 10 rrcurveto
          -44 263.99000549316406 189 -362 354 hhcurveto
          11 hlineto
          70 66 42 18 147 callgsubr
          hvcurveto
          114 callgsubr
          -24 callgsubr
          rlineto
          -1 -13 -12 -1 -19 hhcurveto
          -27 callgsubr
          hlineto
          -267 -219 281.97999572753906 130 callgsubr
          -298 hvcurveto
          248 110 172 264.99000549316406 367 vvcurveto
          459 -226 304 -415 vhcurveto
          hintmask 11011100
          -379.99000549316406 -302 -306 -483 hvcurveto
          186.99000549316406 1 rmoveto
          464 194 228 284 300.02000427246094 169 -275 -393.00999450683594 -464 -194 -236 -281 -302 -170 284 392 vhcurveto
          endchar
        </CharString>
        <CharString name="R">
          96 0 204 callsubr
          582 181.99000549316406 hintmask 11011100
          102.99000549316406 87.97999572753906 -75 callgsubr
          hintmask 11101100
          242 callsubr
          hintmask 11011100
          -54 callgsubr
          endchar
        </CharString>
        <CharString name="Racute">
          96 257 callsubr
          108.01998901367188 43 393 callgsubr
          581 135 callsubr
          -478 -1611 -75 callgsubr
          hintmask 11101110
          242 callsubr
          hintmask 11011110
          -54 callgsubr
          endchar
        </CharString>
        <CharString name="Rcaron">
          97 257 callsubr
          154.00999450683594 115 393 callgsubr
          439 callgsubr
          395 callgsubr
          234 callgsubr
          266 callsubr
          306 callgsubr
          42 -256 -204 -251 204 -74 -44 rlineto
          -291 -1879 -75 callgsubr
          hintmask 11101110
          242 callsubr
          hintmask 11011110
          -54 callgsubr
          endchar
        </CharString>
        <CharString name="Rcommaaccent">
          97 4 callgsubr
          475.99000549316406 204 callsubr
          309.989990234375 141 131.010009765625 159 callgsubr
          hintmask 0111011110000000
          102.99000549316406 87.97999572753906 -75 callgsubr
          hintmask 0111101110000000
          242 callsubr
          hintmask 0111011110000000
          -54 callgsubr
          hintmask 1011011110000000
          495 callsubr
          -1332.979995727539 80 callsubr
          -74.00999450683594 vhcurveto
          -9 hlineto
          -25 360 callgsubr
          23 callgsubr
          147 callgsubr
          -18 130 callgsubr
          -58 callgsubr
          hvcurveto
          hintmask 0111011110000000
          21 -55 callgsubr
          hintmask 1011011110000000
          54 122 callsubr
        </CharString>
        <CharString name="S">
          61 callgsubr
          92 callsubr
          133 70.97999572753906 -104 callgsubr
        </CharString>
        <CharString name="Sacute">
          61 callgsubr
          108.01998901367188 43 92 callsubr
          509.99000549316406 49 callgsubr
          303 callgsubr
          -6 callsubr
          rcurveline
          167 callgsubr
          444 callgsubr
          rlineto
          -377 -1628 -104 callgsubr
        </CharString>
        <CharString name="Scaron">
          61 callgsubr
          154.00999450683594 115 92 callsubr
          321.97999572753906 395 callgsubr
          246 266 callsubr
          249 callsubr
          42 -256 -204 -251 204 -74 -44 rlineto
          -188.99000549316406 -1896 -104 callgsubr
        </CharString>
        <CharString name="Scircumflex">
          61 callgsubr
          352.00999450683594 123.99000549316406 92 callsubr
          304.97999572753906 417 callgsubr
          68 -43 358 callgsubr
          -29 callgsubr
          -171.99000549316406 -1645.020004272461 -104 callgsubr
        </CharString>
        <CharString name="Scommaaccent">
          -119 4 callgsubr
          452.99000549316406 158 callsubr
          1364.010009765625 -81 callgsubr
          hstemhm
          101 callgsubr
          -39 callgsubr
          286.99998474121094 141 196 177 hintmask 01111110
          133 70.97999572753906 -104 callsubr
          hintmask 10111110
          455.99000549316406 -627.9700012207031 125 callgsubr
          -50 59 -74 452 callgsubr
          188 callgsubr
          23 callgsubr
          19 -18 21 -58 callgsubr
          hvcurveto
          hintmask 01111110
          130 callgsubr
          -55 callgsubr
          hintmask 10111110
          218 callgsubr
        </CharString>
        <CharString name="T">
          177 callgsubr
          hstem
          603.9900054931641 58 callgsubr
          vstem
          -29 callsubr
          endchar
        </CharString>
        <CharString name="Tbar">
          105 -20 callsubr
          581.510009765625 112 632.5099945068359 321 callsubr
          hstem
          623.9799957275391 177 vstem
          367.97999572753906 791 rmoveto
          -112 256 -572 vlineto
          -268 -68 callgsubr
          737.0200042724609 -102 callgsubr
          -292 19 rlineto
          572 257.97999572753906 112 -257.97999572753906 638 vlineto
          307 callgsubr
          -34 -521.0099945068359 rlineto
          111.99000549316406 hlineto
          66 417.00999450683594 389 11 rlineto
          -638 -256 vlineto
          endchar
        </CharString>
        <CharString name="Tcaron">
          177 callgsubr
          170 115 hstem
          603.9900054931641 58 callgsubr
          vstem
          386.99000549316406 275 callsubr
          247.99000549316406 276 callgsubr
          155.02000427246094 hlineto
          234 callgsubr
          105 callsubr
          -73.99000549316406 -44 rlineto
          -51 -1879 -94 callgsubr
          737 -102 callgsubr
          -52 callsubr
          -268 -19 rlineto
          endchar
        </CharString>
        <CharString name="Thorn">
          -22 0 96.5 239.49000549316406 92 659 99 -60.97001647949219 -65 callsubr
          258.5299987792969 475 callsubr
          266 callsubr
          -57 callgsubr
          608.0099945068359 458 callsubr
          hintmask 11011110
          -18 callgsubr
          87 rmoveto
          -87 562 87 vlineto
          -222 147 callgsubr
          rlineto
          238 vlineto
          -6.9900054931640625 64 77 -1 116 hhcurveto
          331 205 134 callsubr
          307.02000427246094 hvcurveto
          hintmask 11101110
          268 -175 133 -292 vhcurveto
          hintmask 11011110
          99 callsubr
          -112 -12 319 callsubr
          -101 hvcurveto
          247 vlineto
          184.02000427246094 23 rlineto
          87 -521.0200042724609 -87 vlineto
          369 callsubr
          -1307.020004272461 vlineto
          -174 134 callgsubr
          rlineto
          hintmask 11101110
          948 687.9900054931641 rmoveto
          -257.97999572753906 -153 -89 -204 -76 -88 -2 11 -87 vhcurveto
          630 vlineto
          61 8.009994506835938 -24 callgsubr
          9.990005493164062 92 2 rrcurveto
          262 303 callsubr
          146 callgsubr
          219 callgsubr
          -201 vvcurveto
          endchar
        </CharString>
        <CharString name="U">
          -33 callsubr
          hstem
          74 callsubr
          vstem
          207.99000549316406 651 -100 callgsubr
        </CharString>
        <CharString name="Uacute">
          -33 callsubr
          124.01998901367188 43 hstem
          74 callsubr
          vstem
          657.9799957275391 1698.979995727539 rmoveto
          38 callgsubr
          444 callgsubr
          rlineto
          -449.99000549316406 -1047.979995727539 -100 callgsubr
        </CharString>
        <CharString name="Ubreve">
          -33 callsubr
          132.99998474121094 135 hstem
          77 callgsubr
          84.99998474121094 95 465 94 69 129 vstem
          465.97999572753906 354 callgsubr
          118 -22 callsubr
          -169.99000549316406 -56 452 callsubr
          -3 85 callsubr
          -257.99000549316406 -1303 -100 callgsubr
        </CharString>
        <CharString name="Ucircumflex">
          -33 callsubr
          368.00999450683594 353 callsubr
          74 callsubr
          vstem
          453.97999572753906 417 callgsubr
          68.00999450683594 -43 272 -29 callgsubr
          -245.99000549316406 -1065 -100 callgsubr
        </CharString>
        <CharString name="Udieresis">
          -33 callsubr
          186.00999450683594 252.99000549316406 482 callsubr
          60.00999450683594 156 callgsubr
          34 129 hintmask 00000000
          hintmask 11111110
          441 69 callsubr
          232 callsubr
          -53 64 vhcurveto
          1 hlineto
          83 103 callsubr
          235 callgsubr
          102 callgsubr
          hintmask 11010010
          -719 -1174 -100 callgsubr
        </CharString>
        <CharString name="Ugrave">
          -33 callsubr
          124.01998901367188 43 hstem
          74 callsubr
          vstem
          508.99000549316406 334 callgsubr
          0.9900054931640625 16 callsubr
          -301 -1251 -100 callgsubr
        </CharString>
        <CharString name="Uhungarumlaut">
          -33 callsubr
          134.01998901367188 43 hstem
          74 callsubr
          vstem
          433.99000549316406 52 callsubr
          -711 -1069 -100 callgsubr
        </CharString>
        <CharString name="Umacron">
          -33 callsubr
          236.99998474121094 12 callsubr
          hstem
          77 callgsubr
          148.99998474121094 540.0200042724609 118.97999572753906 129 vstem
          529.9799957275391 1885 rmoveto
          -126.00999450683594 540.0200042724609 12 callsubr
          -540.0200042724609 vlineto
          -321.99000549316406 -1234 -100 callgsubr
        </CharString>
        <CharString name="Uogonek">
          189 -509.99000549316406 115 379 98.97000122070312 1339.510009765625 427 callsubr
          77 callgsubr
          172.99998474121094 163 472 129 vstem
          207.99000549316406 651 rmoveto
          -452.02000427246094 173 -214.97000122070312 396 1 callsubr
          8 0 1 1 callsubr
          vhcurveto
          -133.97999572753906 -19 callgsubr
          -115.02000427246094 148 callgsubr
          -105 vvcurveto
          -145 266 callgsubr
          -47 12 callgsubr
          411 callgsubr
          57.02000427246094 vhcurveto
          86 vlineto
          -24 -48 -58 -17 -54 hhcurveto
          -83.99000549316406 187 callgsubr
          35 97 356 callsubr
          106 115 131 70.97999572753906 hvcurveto
          216.99000549316406 65 147 198 354 vvcurveto
          786 vlineto
          157 23 rlineto
          88 -455 -88 vlineto
          169 -24 rlineto
          -793 vlineto
          -348 -134 -186 -262 -240 -172 13 callgsubr
          425 vhcurveto
          778 vlineto
          341 callsubr
          -501 -88 vlineto
          152 -23 rlineto
          -760 vlineto
          endchar
        </CharString>
        <CharString name="Uring">
          -33 callsubr
          -5.9900054931640625 342 callgsubr
          335.00999450683594 433 callsubr
          482 callsubr
          92.99998474121094 127 390 12 callsubr
          162 callsubr
          129 hintmask 11011111
          473.99000549316406 1768 rmoveto
          hintmask 10111111
          288 callgsubr
          2 hvcurveto
          149.02000427246094 -38 callsubr
          -109 -40 callgsubr
          -202 hhcurveto
          -1 hlineto
          hintmask 11011111
          -161 -168 -80 -165.99000549316406 -3 hvcurveto
          hintmask 10111111
          446 callgsubr
          -6 callgsubr
          55 13 callgsubr
          hvcurveto
          1 hlineto
          135 2 callgsubr
          -75 -100 -104 -63 -56 -129 hvcurveto
          -591 -944.9900054931641 rmoveto
          -452.02000427246094 173 -214.97000122070312 396 311.00999450683594 -8 callsubr
          196.97000122070312 444 vhcurveto
          hintmask 11011111
          786 vlineto
          157 23 rlineto
          88 -455 -88 vlineto
          169 -24 rlineto
          -793 vlineto
          -348 -134 -186 -262 -240 -172 13 callgsubr
          425 vhcurveto
          778 vlineto
          341 callsubr
          -501 -88 vlineto
          152 -23 rlineto
          hintmask 10111111
          -760 vlineto
          endchar
        </CharString>
        <CharString name="Utilde">
          -33 callsubr
          182.99998474121094 123 52 123 hstemhm
          74 callsubr
          hintmask 11011100
          633 259 callsubr
          hintmask 11111100
          133 80 152 callsubr
          -97.00999450683594 403 callgsubr
          -25 457 callgsubr
          hintmask 11011100
          -144 -101 219 callgsubr
          -89 -23 hvcurveto
          356 callsubr
          -47 rlineto
          40 147 callgsubr
          41 91 -4 callgsubr
          hhcurveto
          -425 -1228.990005493164 -100 callgsubr
        </CharString>
        <CharString name="V">
          28 -12 callsubr
          43 -43 -39 callgsubr
          1277.990005493164 99 hstemhm
          -30 1415.979995727539 -431 431 hintmask 10110000
          -81 callgsubr
          1410.990005493164 rmoveto
          536 -1426.979995727539 rlineto
          135 hlineto
          hintmask 01101000
          488 1427.979995727539 213 callgsubr
          22 rlineto
          88 -431 -88 vlineto
          164 -23 -314 -983 54 callgsubr
          -283 -86.02000427246094 278 -362.99000549316406 989 72 callgsubr
          22 rlineto
          88 -496.97999572753906 -88 vlineto
          hintmask 10110000
          126.99000549316406 -23 rlineto
          endchar
        </CharString>
        <CharString name="W">
          14 callsubr
          351 callsubr
          hintmask 10110000
          158 callsubr
          1409.990005493164 rmoveto
          443 -1420.979995727539 rlineto
          149 hlineto
          326 1071.979995727539 331 -1071.979995727539 rlineto
          157 callsubr
          hlineto
          hintmask 10101000
          419 1421.990005493164 306 callsubr
          23 rlineto
          88 -485 -88 vlineto
          215 -23 -274 -972 -66.99000549316406 -348 64 callgsubr
          348 -289 972 203 23 rlineto
          88 -531.9900054931641 -88 vlineto
          151 -23 56 -172 -246 -800.0099945068359 rlineto
          hintmask 01110000
          -80 -325 -66.99000549316406 325 -298 972 201 23 rlineto
          88 -514.9900054931641 -88 vlineto
          hintmask 10110000
          141.97999572753906 -24 rlineto
          endchar
        </CharString>
        <CharString name="Wacute">
          14 callsubr
          124.01998901367188 43 312 callsubr
          869.9900054931641 1698.979995727539 rmoveto
          55.99000549316406 -52.97999572753906 rlineto
          1 325 callsubr
          -770.0099945068359 -288.99000549316406 -65 callgsubr
        </CharString>
        <CharString name="Wcircumflex">
          14 callsubr
          368.00999450683594 109 callgsubr
          312 callsubr
          665.9900054931641 417 callgsubr
          68 -43 358 callgsubr
          217 266 -217 75 45 -265 296 rlineto
          -154 hlineto
          -262 -297.97999572753906 rlineto
          -566 -306.00999450683594 -65 callgsubr
        </CharString>
        <CharString name="Wdieresis">
          14 callsubr
          186.00999450683594 127 callsubr
          650.9900054931641 131 callsubr
          258.00999450683594 228 215.010009765625 485 hintmask 10111110
          651 110 callgsubr
          84 40 -25 callsubr
          -1037 -415 rmoveto
          443 -1420.979995727539 rlineto
          149 hlineto
          326 1071.979995727539 331 -1071.979995727539 rlineto
          157 callsubr
          hlineto
          419 1421.990005493164 306 callsubr
          23 rlineto
          88 -485 -88 vlineto
          215 -23 -274 -972 -66.99000549316406 -348 64 callgsubr
          348 -289 972 203 23 rlineto
          88 -531.9900054931641 -88 vlineto
          151 -23 56 -172 -246 -800.0099945068359 rlineto
          hintmask 01111110
          -80 -325 -66.99000549316406 325 -298 972 201 23 rlineto
          88 -514.9900054931641 -88 vlineto
          hintmask 10111110
          141.97999572753906 -24 rlineto
          endchar
        </CharString>
        <CharString name="Wgrave">
          14 callsubr
          124.01998901367188 43 312 callsubr
          712.9900054931641 334 callgsubr
          0.9900054931640625 16 callsubr
          -613.0099945068359 -492.00999450683594 -65 callgsubr
        </CharString>
        <CharString name="X">
          -33 callgsubr
        </CharString>
        <CharString name="Y">
          144 callgsubr
          136 callsubr
          354 87.97999572753906 -40 callsubr
        </CharString>
        <CharString name="Yacute">
          144 callgsubr
          124.01998901367188 43 136 callsubr
          541.9799957275391 70 callsubr
          56.02000427246094 40 callsubr
          444 callgsubr
          rlineto
          318 callgsubr
          -1611 -40 callsubr
        </CharString>
        <CharString name="Ycircumflex">
          144 callgsubr
          368.00999450683594 123.99000549316406 136 callsubr
          337 417 callgsubr
          68 -43 272 217 266 -217 319 callgsubr
          45 -265.00999450683594 296 rlineto
          202 callgsubr
          hlineto
          -262 -297.97999572753906 rlineto
          17 -1628.020004272461 -40 callsubr
        </CharString>
        <CharString name="Ydieresis">
          144 callgsubr
          186.00999450683594 127 callsubr
          -19 490.97999572753906 -150 228 32 172 54.010009765625 131 callsubr
          284 callsubr
          445 hintmask 00000000
          hintmask 11101110
          321.97999572753906 183 callgsubr
          83 226 callsubr
          105 callgsubr
          -38 callgsubr
          -80 -40 -66.99000549316406 -69 hvcurveto
          -454 -1737.009994506836 -94 callgsubr
          633 -102 callgsubr
          hintmask 11010101
          -83 callgsubr
          hintmask 11101110
          -227.99000549316406 -19 rlineto
          endchar
        </CharString>
        <CharString name="Ygrave">
          144 callgsubr
          124.01998901367188 43 136 callsubr
          384.97999572753906 1902 rmoveto
          69 -89 235 205 callsubr
          -25 callgsubr
          -1814.020004272461 -40 callsubr
        </CharString>
        <CharString name="Z">
          15 0 18 callgsubr
          -76 76 hstemhm
          87 1161.990005493164 hintmask 11101000
          87 342 callgsubr
          35 callgsubr
          hintmask 11011000
          455 callgsubr
          hintmask 11101000
          174 callgsubr
        </CharString>
        <CharString name="Zacute">
          15 0 18 callgsubr
          -76 76 118.00999450683594 43 hstemhm
          87 1161.990005493164 hintmask 11101100
          570 75 callsubr
          131 callgsubr
          128 377 callsubr
          89 360 callsubr
          193 callgsubr
          -483 -1618.990005493164 35 callgsubr
          hintmask 11011100
          802 1195.990005493164 rlineto
          hintmask 11101100
          174 callgsubr
        </CharString>
        <CharString name="Zcaron">
          17 0 18 callgsubr
          -76 76 164 115 hstemhm
          -105 callsubr
          1162.009994506836 hintmask 11101100
          383 275 callsubr
          247.99000549316406 276 callgsubr
          155 104 callsubr
          -74 -44 rlineto
          -295.02000427246094 -1886.990005493164 36 callgsubr
        </CharString>
        <CharString name="Zdotaccent">
          17 0 18 callgsubr
          -76 76 184.989990234375 252 hstemhm
          593.9799957275391 228 hintmask 11101100
          593.9799957275391 1828.990005493164 rmoveto
          -65 86 callsubr
          344 callgsubr
          -93 callsubr
          40 60 73 58 -38 61 -70 hvcurveto
          -1 hlineto
          -80 65 callgsubr
          -19 callgsubr
          -69 hvcurveto
          -506 -1749 36 callgsubr
        </CharString>
        <CharString name="a">
          -183 -77 callsubr
          372 callsubr
          hintmask 10111100
          791 681.9799957275391 -97 callsubr
          hintmask 01111100
          -106 callsubr
          hintmask 10111100
          -98 callsubr
        </CharString>
        <CharString name="aacute">
          -183 -77 callsubr
          528.0099945068359 468 callgsubr
          hintmask 10111110
          442 13 callsubr
          -61 callgsubr
          hlineto
          84 200 callsubr
          100 callsubr
          217 52.02000427246094 80 502 callgsubr
          111 rcurveline
          167 callgsubr
          -320 -394 rlineto
          349 -723 -97 callsubr
          hintmask 01111110
          -106 callsubr
          hintmask 10111110
          -98 callsubr
        </CharString>
        <CharString name="abreve">
          -183 -77 callsubr
          203.99998474121094 142 211 callgsubr
          -64.010009765625 491 callgsubr
          -85 163 hintmask 0000000000000000
          hintmask 1011101100000000
          316 callsubr
          245 callgsubr
          120.02000427246094 -162 210 199.99000549316406 266 callgsubr
          163 176 15 -2 15.009994506835938 -1 -3 callgsubr
          vhcurveto
          -89.99000549316406 395 callsubr
          -7 8 callsubr
          -123.99000549316406 -167 hhcurveto
          -168 -57 352 callgsubr
          458 callgsubr
          373 callsubr
          -3 -58 callgsubr
          0 -71 callgsubr
          -58 callgsubr
          vvcurveto
          hintmask 1011110010000000
          569.0200042724609 -1020.0099945068359 -97 callsubr
          hintmask 0111110010000000
          -106 callsubr
          hintmask 1011110010000000
          -98 callsubr
        </CharString>
        <CharString name="acircumflex">
          -183 -77 callsubr
          482.99998474121094 132.99000549316406 -132.97999572753906 468 callgsubr
          hintmask 10110111
          72 callgsubr
          68 callgsubr
          281 -309 -30 callgsubr
          42 rlineto
          hintmask 10111011
          388 callgsubr
          -155 hlineto
          hintmask 10110111
          362 callgsubr
          602.0099945068359 -693 -97 callsubr
          hintmask 01110111
          -106 callsubr
          hintmask 10110111
          -98 callsubr
        </CharString>
        <CharString name="acute">
          -642 1687.990005493164 43 hstem
          301 callsubr
          448 vstem
          301 callsubr
          91 callgsubr
          -127 111 rcurveline
          -1 hlineto
          -320 -394 rlineto
          endchar
        </CharString>
        <CharString name="acute.cap">
          -263 1646 43 hstem
          545.9900054931641 454 vstem
          546 135 callsubr
          endchar
        </CharString>
        <CharString name="adieresis">
          -89 callsubr
        </CharString>
        <CharString name="ae">
          -88 callsubr
        </CharString>
        <CharString name="aeacute">
          459 -23 116.97999572753906 -116.97999572753906 121.97000122070312 483.00999450683594 -4 callgsubr
          78 callgsubr
          88 350 128 -97.989990234375 106 520 43 211 callgsubr
          493 178.99000549316406 559.0099945068359 178.99000549316406 hintmask 1010011111000000
          819 91 callgsubr
          -127 111 rcurveline
          -1 hlineto
          -320 -394 rlineto
          46 -1201.990005493164 rmoveto
          -141 81 138 -23 callgsubr
          190 hhcurveto
          156 -52 callgsubr
          65.97999572753906 80 157 callgsubr
          hvcurveto
          -33 75 rlineto
          8 callsubr
          -63.02000427246094 -134.99000549316406 410 callgsubr
          -196 -163 146 317.00999450683594 -9 hvcurveto
          -1 115 callgsubr
          9.009994506835938 -51 callgsubr
          vvcurveto
          729 424 callsubr
          1 57 78 vvcurveto
          265 -37 callgsubr
          441 callgsubr
          -94 hvcurveto
          hintmask 1001101111000000
          116 -47 -104.97999572753906 51 -186.02000427246094 hhcurveto
          -184 -229 -112 -47 280 callsubr
          hvcurveto
          200 callgsubr
          -85 rlineto
          43 433 callgsubr
          144 -30 callgsubr
          157 hhcurveto
          194 41 -74 -205 hvcurveto
          -71 vlineto
          -326 -6 -349 -93 -285 vvcurveto
          -222.99000549316406 162 -97.99000549316406 181 vhcurveto
          hintmask 1010011111000000
          215 140 234 callsubr
          89 63 hvcurveto
          93 475 rmoveto
          285 18 123 99 163 hhcurveto
          159 callgsubr
          72.00999450683594 -126 -167.02000427246094 1 hvcurveto
          -30 -2 5 callsubr
          -2 -29 vhcurveto
          -554.9900054931641 hlineto
          hintmask 0101011111000000
          -131 -394 rmoveto
          -83 112 callgsubr
          -126 -102.02000427246094 361 callsubr
          hhcurveto
          -123.99000549316406 95 callsubr
          56.02000427246094 164 81 callsubr
          164 118 329.00999450683594 -61 callgsubr
          hvcurveto
          114 callgsubr
          vlineto
          253 callgsubr
          16 -98 112 callsubr
          -83.99000549316406 vhcurveto
          endchar
        </CharString>
        <CharString name="agrave">
          -183 -77 callsubr
          528.0099945068359 468 callgsubr
          hintmask 10111110
          493 callsubr
          299 callgsubr
          52 -81 261 -227 319 callgsubr
          274 callsubr
          156 callsubr
          59 466 callgsubr
          -128 -111 rlineto
          580.0200042724609 -1006 -97 callsubr
          hintmask 01111110
          -106 callsubr
          hintmask 10111110
          -98 callsubr
        </CharString>
        <CharString name="amacron">
          -183 -77 callsubr
          271.00999450683594 12 callgsubr
          211 callgsubr
          -3 497 callsubr
          304 callsubr
          163 hintmask 00000000
          hintmask 10111010
          281 callgsubr
          153 callsubr
          hintmask 10111101
          508 -875.0099945068359 -97 callsubr
          hintmask 01111101
          -106 callsubr
          hintmask 10111101
          -98 callsubr
        </CharString>
        <CharString name="ampersand">
          219 -17 -18 callgsubr
          -98.99000549316406 94 637.9900054931641 110 627.989990234375 83 hstemhm
          138.99000549316406 -52 callgsubr
          -40.00001525878906 98 callsubr
          424.00999450683594 149 194 134 hintmask 10111011
          1024.979995727539 828.9900054931641 rmoveto
          -100 vlineto
          168 114 callgsubr
          14 -125.00999450683594 -25 -176 -97 -117 rlinecurve
          -55.99000549316406 55 -102.00999450683594 103 -185 206 250 callsubr
          117 rlinecurve
          172 133 181 100 256 vvcurveto
          129 -112 150 -237 vhcurveto
          hintmask 10110111
          -222 -164 -162 505 callgsubr
          -150 89 -164 93 317 callgsubr
          hvcurveto
          hintmask 10111011
          -141 -87 -165.99000549316406 303 callgsubr
          318 callgsubr
          vvcurveto
          -250 211.99000549316406 -137.99000549316406 315 133 callgsubr
          -31 callsubr
          30.979995727539062 5 callgsubr
          119.00999450683594 vhcurveto
          hintmask 01111011
          -86.02000427246094 98 68 -42.97999572753906 94 hhcurveto
          30 69 6 13.979995727539062 172 callsubr
          hvcurveto
          74.02000427246094 vlineto
          -113 303 callsubr
          -69 48 -88 82 105 109 65 508 callgsubr
          304 callgsubr
          197 175 19.990005493164062 rcurveline
          100 vlineto
          hintmask 10111011
          -477 hlineto
          hintmask 10110111
          -436 12 rmoveto
          306 callgsubr
          80 -95.00999450683594 283 callsubr
          -57 callgsubr
          vvcurveto
          136 -4 callgsubr
          130 callsubr
          123 173 callgsubr
          34 -129 54 callgsubr
          vhcurveto
          -35 callgsubr
          -190.02000427246094 -82 -81 -178.02000427246094 -137.99000549316406 rrcurveto
          381.00999450683594 -656 rmoveto
          249 callsubr
          -84 317 callgsubr
          -25 callgsubr
          -94 hhcurveto
          hintmask 10111011
          -247 -122 140 161 221 callsubr
          282 callgsubr
          340 callgsubr
          103 78 hvcurveto
          hintmask 10110111
          52 callgsubr
          361 callsubr
          204 406 callgsubr
          137 -127 rrcurveto
          endchar
        </CharString>
        <CharString name="ampersand.sc">
          -299 endchar
        </CharString>
        <CharString name="aogonek">
          -183 -509.99000549316406 115 371.99000549316406 121.97000122070312 -113.96000671386719 43 -15.029998779296875 76 497.010009765625 -78 callgsubr
          345.00999450683594 100 callgsubr
          211 callgsubr
          283 163 59 163 hintmask 1100111010000000
          791 681.9799957275391 -97 callsubr
          hintmask 1010111010000000
          -75 vlineto
          -56 13 114 callgsubr
          27 -6.9900054931640625 vhcurveto
          hintmask 1001111110000000
          -140.99000549316406 -19 callgsubr
          -134 -133 -103 160 callsubr
          -22 callgsubr
          34 97 83 111.99000549316406 284 callgsubr
          137 59 hvcurveto
          hintmask 1001111010000000
          39 303 callsubr
          37 -51 callgsubr
          25 7 rrcurveto
          76 -128 675 vlineto
          287 -95 109 -278 -188 -216 -117 -36 -49 callgsubr
          vhcurveto
          45 87 callgsubr
          rlineto
          1 hlineto
          37.99000549316406 65 135.99000549316406 72.00999450683594 159 hhcurveto
          193 53 132 callgsubr
          -203 hvcurveto
          hintmask 1100111010000000
          -98 callsubr
        </CharString>
        <CharString name="approxequal">
          67 133 callsubr
          134 34 134 281.989990234375 134 34.010009765625 511 callgsubr
          hstemhm
          219.99000549316406 960 hintmask 01011000
          220 881.9900054931641 rmoveto
          70 -76 rlineto
          -1 callsubr
          200 callgsubr
          72.00999450683594 214 callgsubr
          99 hhcurveto
          hintmask 01111000
          136 -26 callsubr
          -168.02000427246094 175 hhcurveto
          140 114 88 148 callsubr
          409 callgsubr
          488 callsubr
          -62.02000427246094 -99 hhcurveto
          hintmask 01011000
          197 callgsubr
          -23 callgsubr
          280 callsubr
          hvcurveto
          -584.0099945068359 vmoveto
          70 -76 rlineto
          56.02000427246094 200 callgsubr
          72.00999450683594 63 99 hhcurveto
          hintmask 11011000
          136 -26 callsubr
          -168 175 hhcurveto
          140 114 88 -4 callsubr
          409 callgsubr
          488 callsubr
          286 callsubr
          -99 hhcurveto
          hintmask 01011000
          197 callgsubr
          -85.02000427246094 280 callsubr
          hvcurveto
          endchar
        </CharString>
        <CharString name="aring">
          -183 -77 callsubr
          158.00999450683594 489 callsubr
          211 callgsubr
          -56 52 callgsubr
          393.00999450683594 124 -81 163 hintmask 0000000000000000
          hintmask 1011110110000000
          -8 callsubr
          1599 rmoveto
          -157 -2 103.02000427246094 176 callsubr
          -38 callsubr
          -109 117 179 callsubr
          hhcurveto
          -1 hlineto
          -161 -169 -95 -169.99000549316406 -2 hvcurveto
          325 -200 rmoveto
          -1 hlineto
          -138 -61 340 callgsubr
          105 111.99000549316406 319 callgsubr
          70 52 callgsubr
          hvcurveto
          1 hlineto
          136 56 292 callsubr
          hintmask 1011111001000000
          236 -717 -97 callsubr
          hintmask 0111111001000000
          -106 callsubr
          hintmask 1011111001000000
          -98 callsubr
        </CharString>
</ttFont>
